<svg class="external-icon" display="block" pointer-events="none" style="height:100%;width:100%" focusable="false" viewBox="0 0 28.57 20" xmlns="http://www.w3.org/2000/svg"><path d="m14.285.0S5.3501 29047e-8 3.123.59766c-1.23.32926-2.1961 1.2954-2.5254 2.5254-.59737 2.2272-.59766 6.877-.59766 6.877s29047e-8 4.6498.59766 6.877c.32926 1.23 1.2954 2.1962 2.5254 2.5254 2.2272.5974 11.162.59766 11.162.59766s8.935-256e-6 11.162-.59766c1.23-.3292 2.1962-1.2954 2.5254-2.5254.5974-2.2272.59766-6.877.59766-6.877s-.0027-4.6498-.59766-6.877c-.3292-1.23-1.2954-2.1961-2.5254-2.5254-2.2271-.59737-11.162-.59766-11.162-.59766zm-2.8594 5.7148L18.8475 10l-7.4219 4.2852z" fill="#fff"/></svg>