<svg width="300" height="300" viewBox="0 0 300 300" xmlns="http://www.w3.org/2000/svg"><g transform="matrix(.79494 0 0 .79494 30.759 30.759)" stroke-width="6.7327"><path d="m130.48 166.93 64.634-62.48V88.291l-18.313-18.313h-47.039l-16.877 16.877v20.468H64.768v-35.19l43.808-43.808h89.411l45.244 45.244v45.244l-65.352 63.198v29.085h-47.398zm-3.9499 97.31v-21.545l15.44-15.44h24.417l15.44 15.44v21.545l-15.44 15.44h-24.417z" fill="#372001" aria-label="?"/><path d="m122.48 158.93 64.634-62.48V80.291l-18.313-18.313h-47.039l-16.877 16.877v20.468H56.768v-35.19l43.808-43.808h89.411l45.244 45.244v45.244l-65.352 63.198v29.085h-47.398zm-3.9499 97.31v-21.545l15.44-15.44h24.417l15.44 15.44v21.545l-15.44 15.44h-24.417z" fill="#fff5dd" aria-label="?"/></g></svg>