<svg version="1.1" viewBox="-147 -70 294 345" xmlns="http://www.w3.org/2000/svg"><g fill="#a4c639"><path d="m119 41c-13.296 0-24 10.704-24 24v85c0 13.296 10.704 24 24 24s24-10.704 24-24v-85c0-13.296-10.704-24-24-24z"/><path d="m-119 41c-13.296 0-24 10.704-24 24v85c0 13.296 10.704 24 24 24s24-10.704 24-24v-85c0-13.296-10.704-24-24-24z"/><path d="m91 48.047h-182v131.95c0 12.188 9.812 22 22 22h11v45c0 13.296 10.704 24 24 24s24-10.704 24-24v-45h20v45c0 13.296 10.704 24 24 24s24-10.704 24-24v-45h11c12.188 0 22-9.812 22-22z"/><path d="m56.529-66.1c-2.3047-0.0216-4.542 1.1902-5.7422 3.3555l-14.766 26.639c-11.373-4.5379-23.631-6.884-36.021-6.8945-12.383 0.03763-24.627 2.4076-35.982 6.9648l-14.805-26.709c-1.0911-1.9684-3.0402-3.1484-5.1172-3.3301-0.15577-0.01363-0.31187-0.0211-0.46875-0.02344-1.0982-0.01636-2.2166 0.24552-3.25 0.81836-3.1495 1.7458-4.279 5.6864-2.5332 8.8359l14.504 26.166c-26.22 14.946-42.464 41.124-43.164 69.562-0.03077 0.27526-0.06007 0.55065-0.08789 0.82617-0.01896 0.22447-0.02478 0.45271-0.03516 0.67969h181.93c-0.097741-29.049-16.443-55.998-43.242-71.246l14.406-25.988c1.7458-3.1495 0.6163-7.0901-2.5332-8.8359-0.98422-0.54556-2.0461-0.81049-3.0938-0.82031zm-14.434 58.309a7.6952 7.6952 0 0 1 7.6953 7.6953 7.6952 7.6952 0 0 1-7.6953 7.6953 7.6952 7.6952 0 0 1-7.6953-7.6953 7.6952 7.6952 0 0 1 7.6953-7.6953zm-83.928 0.42188a7.6952 7.6952 0 0 1 7.6953 7.6953 7.6952 7.6952 0 0 1-7.6953 7.6934 7.6952 7.6952 0 0 1-7.6953-7.6934 7.6952 7.6952 0 0 1 7.6953-7.6953z"/></g></svg>
