<svg width="951.22" height="1153" version="1.1" viewBox="0 0 951.22 1153" xmlns="http://www.w3.org/2000/svg"><style type="text/css">.st0{fill:url(#a);}
	.st1{fill:url(#SVGID_00000041271221684996329310000007137906567437785790_);}
	.st2{fill:#5F6368;}</style><radialGradient id="a" cx="1021.3" cy="1155.6" r="1" gradientTransform="matrix(100 508 508 -100 -688597 -402905)" gradientUnits="userSpaceOnUse"><stop stop-color="#1BA1E3" offset="0"/><stop stop-color="#5489D6" offset=".3002"/><stop stop-color="#9B72CB" offset=".5455"/><stop stop-color="#D96570" offset=".8254"/><stop stop-color="#F49C46" offset="1"/></radialGradient><path class="st0" d="m450.63 563.9-33.5 76.77c-12.88 29.51-53.69 29.51-66.57 0l-33.5-76.77c-29.82-68.32-83.48-122.71-150.42-152.43l-92.22-40.95c-29.32-13.02-29.32-55.69 0-68.71l89.33-39.68c68.66-30.49 123.29-86.89 152.59-157.54l33.94-81.82c12.59-30.36 54.52-30.36 67.12 0l33.94 81.82c29.3 70.65 83.93 127.05 152.59 157.54l89.34 39.68c29.32 13.02 29.32 55.69 0 68.71l-92.22 40.96c-66.95 29.71-120.61 84.1-150.42 152.42z" fill="url(#a)"/><path d="m761.97 805.98-9.42 21.61c-6.9 15.82-28.79 15.82-35.68 0l-9.42-21.61c-16.79-38.52-47.05-69.19-84.79-85.97l-29.03-12.9c-15.7-6.98-15.7-29.81 0-36.78l27.41-12.18c38.72-17.21 69.51-49.02 86.02-88.85l9.67-23.35c6.74-16.27 29.23-16.27 35.97 0l9.68 23.35c16.51 39.83 47.3 71.64 86.02 88.85l27.41 12.18c15.7 6.98 15.7 29.81 0 36.78l-29.03 12.9c-37.77 16.77-68.02 47.45-84.81 85.97z" fill="url(#a)"/><g transform="matrix(.64082 0 0 .64082 -731.5 415.21)" fill="#707070"><path class="st2" d="m1155.9 1137.3v-550.1h198.99c43.54 0 80.93 14.34 112.17 43.02 31.25 28.17 46.87 63.77 46.87 106.79 0 54.29-24.84 92.45-74.53 114.48v3.07c28.17 9.22 50.71 25.35 67.61 48.4 16.9 22.54 25.35 48.4 25.35 77.6 0 45.07-16.39 82.46-49.17 112.17-31.76 29.71-70.94 44.56-117.55 44.56h-209.74zm70.69-482.49v168.26h128.31c25.1 0 46.1-8.45 63-25.35 16.9-17.41 25.35-37.13 25.35-59.16 0-21.51-8.2-40.98-24.59-58.39-16.39-16.9-36.62-25.35-60.7-25.35h-131.37zm0 234.33v180.55h142.14c25.61 0 47.38-8.96 65.31-26.89 17.41-17.93 26.12-39.18 26.12-63.77 0-24.07-8.96-45.07-26.89-63s-40.46-26.89-67.61-26.89zm424.67 132.92c0 18.44 7.68 33.81 23.05 46.1 15.88 12.29 34.32 18.44 55.32 18.44 29.71 0 56.09-11.01 79.13-33.04 23.56-22.03 35.34-47.89 35.34-77.6-22.03-17.42-52.76-26.12-92.2-26.12-28.68 0-52.76 6.91-72.22 20.74-18.94 13.83-28.42 30.99-28.42 51.48zm91.43-273.52c52.24 0 93.48 14.09 123.7 42.26 30.22 27.66 45.33 65.82 45.33 114.48v232.03h-67.61v-52.24h-3.08c-29.2 43.02-68.12 64.54-116.78 64.54-41.49 0-76.32-12.29-104.49-36.88-27.66-24.59-41.49-55.32-41.49-92.2 0-38.93 14.6-69.92 43.79-92.96 29.71-23.05 69.15-34.57 118.32-34.57 42 0 76.58 7.68 103.72 23.05v-16.13c0-24.59-9.73-45.33-29.2-62.23-19.46-17.41-42.26-26.12-68.38-26.12-39.44 0-70.68 16.65-93.73 49.94l-62.23-39.18c34.33-49.2 85.03-73.79 152.13-73.79zm319.43 388.76h-70.68v-376.47h67.61v61.46h3.07c7.17-19.98 21.77-36.88 43.79-50.71 22.54-14.34 44.56-21.51 66.07-21.51 20.49 0 37.91 3.07 52.24 9.22l-21.51 68.38c-8.71-3.59-22.54-5.38-41.49-5.38-26.63 0-49.94 10.76-69.92 32.27-19.46 21.51-29.2 46.61-29.2 75.29v207.45zm354.2-52.24c34.83 0 63.26-12.55 85.28-37.65 23.05-25.1 34.57-57.88 34.57-98.34 0-39.44-11.52-71.97-34.57-97.57-22.54-25.61-50.96-38.42-85.28-38.42-33.81 0-62.23 12.81-85.28 38.42s-34.57 58.14-34.57 97.57c0 39.95 11.52 72.48 34.57 97.57 23.04 25.61 51.47 38.42 85.28 38.42zm-11.53 64.53c-49.17 0-91.43-19.46-126.77-58.39-34.83-39.44-52.24-86.82-52.24-142.14s17.42-102.7 52.24-142.14c35.34-38.93 77.6-58.39 126.77-58.39 27.66 0 52.76 5.89 75.29 17.67 23.05 11.78 40.72 27.4 53.01 46.87h3.07l-3.07-52.24v-173.63h70.68v550.1h-67.61v-52.24h-3.07c-12.29 19.46-29.96 35.09-53.01 46.87-22.53 11.77-47.63 17.66-75.29 17.66z" fill="#707070"/></g></svg>
