<svg width="242.75" height="312.24" version="1.0" xmlns="http://www.w3.org/2000/svg"><g transform="translate(3824.6 782.89)"><g transform="translate(-3826.7 -785.88)"><path d="m82.626 243.32s-11.939 7.2672 8.3052 9.3435c24.397 3.1144 37.374 2.5958 64.366-2.5953 0 0 7.2672 4.6716 17.13 8.3055-60.733 25.954-137.56-1.5577-89.801-15.054zm-7.7864-33.74s-12.977 9.8623 7.2672 11.939c26.474 2.5958 47.237 3.1144 83.053-4.1526 0 0 4.6719 5.1909 12.458 7.7864-73.191 21.802-155.21 2.0763-102.78-15.572zm143.27 59.175s8.8245 7.2674-9.8625 12.977c-34.779 10.382-145.86 13.496-177.01 0-10.901-4.6714 9.8628-11.42 16.61-12.458 6.7482-1.5571 10.382-1.5571 10.382-1.5571-11.938-8.3055-79.42 17.13-34.26 24.397 124.06 20.244 226.32-8.8243 194.14-23.359zm-129.77-94.473s-56.58 13.496-20.244 18.168c15.572 2.0761 46.198 1.5575 74.748-0.51903 23.358-2.0763 46.718-6.2289 46.718-6.2289s-8.3055 3.6334-14.016 7.2674c-57.618 15.053-168.18 8.305-136.52-7.2674 26.992-12.977 49.312-11.42 49.312-11.42zm101.22 56.58c58.137-30.107 31.145-59.175 12.458-55.542-4.6719 1.038-6.7482 2.0763-6.7482 2.0763s1.5573-3.1146 5.1907-4.1526c36.855-12.977 65.924 38.931-11.938 59.175 0 0 0.51861-0.51903 1.038-1.5573zm-95.512 82.015c56.061 3.6338 141.71-2.0763 143.79-28.549 0 0-4.1524 10.382-46.198 18.168-47.756 8.8247-106.93 7.7864-141.71 2.0763 0 0 7.267 6.2292 44.122 8.3055z" fill="#4e7896"/><path d="m154.26 2.9854s32.183 32.702-30.626 82.015c-50.351 39.969-11.42 62.809 0 88.763-29.588-26.473-50.87-49.832-36.336-71.634 21.283-32.183 79.939-47.755 66.962-99.145zm-16.61 148.98c15.053 17.13-4.1528 32.703-4.1528 32.703s38.412-19.725 20.763-44.122c-16.092-23.358-28.55-34.778 38.931-73.71 0 0-106.41 26.474-55.542 85.13z" fill="#f58219"/></g></g></svg>
