<svg width="24px" height="24px" fill="#1f1f1f" version="1.1" viewBox="0 -960 960 960" xmlns="http://www.w3.org/2000/svg"><g fill="#666"><rect x="542.16" y="-475.99" width="353.61" height="54.721" stroke-width="49.01" style="font-variation-settings:'wght' 700"/><rect x="542.16" y="-155.99" width="353.61" height="54.721" stroke-width="49.01" style="font-variation-settings:'wght' 700"/><rect x="742.9" y="-449.82" width="93.829" height="333.83" stroke-width="38.519" style="font-variation-settings:'wght' 700"/><rect x="601.19" y="-448.63" width="93.829" height="332.64" stroke-width="38.45" style="font-variation-settings:'wght' 700"/><path d="m463.91-403.12h-182.73v80h182.73z"/><path d="m463.91-542.89v-20.234h-182.73v80h182.73z"/><path d="m281.17-723.12v80h320v-80z"/><path d="m201.17-883.12c-22 0-40.818 7.8486-56.484 23.516-15.667 15.667-23.516 34.484-23.516 56.484v560c0 22 7.8486 40.818 23.516 56.484 15.667 15.667 34.484 23.516 56.484 23.516h262.73v-80h-262.73v-560h480v240h80v-240c1e-5 -22-7.8486-40.818-23.516-56.484-15.667-15.667-34.484-23.516-56.484-23.516z"/></g></svg>
