<svg width="24px" height="24px" fill="#1f1f1f" version="1.1" viewBox="0 -960 960 960" xmlns="http://www.w3.org/2000/svg"><path d="m326.15-529.85 104-104.62-68.308-68.923-56.615 56.615-64.615-64.615 56-56.615-60.923-61.538-104.62 104.62zm398.77 398.15 104.62-104.62-59.692-59.077-56.615 56-65.231-65.231 56-56.615-68.923-68.308-104 104zm-54.154-610.46 73.231 72.615 75.077-75.077-73.846-73.846zm-416.62 692.92h-204.92v-204.31l211.08-211.08-260.31-260.31 236.92-235.08 259.69 260.92 182.15-184q14.154-14.154 31.077-20.923 16.923-6.7692 35.385-6.7692t35.692 6.7692 31.385 20.923l70.769 71.385q14.154 14.154 20.923 31.077 6.7692 16.923 6.7692 35.385t-6.7692 35.385q-6.7692 16.923-20.923 31.077l-182.77 183.38 259.69 258.46-235.08 236.92-259.69-259.69z" fill="#6a4700" stroke-width="1.2308"/></svg>
