<?xml version="1.0" encoding="UTF-8"?>
<!-- Created with Inkscape (http://www.inkscape.org/) -->
<svg width="300" height="300" version="1.1" viewBox="0 0 300 300" xmlns="http://www.w3.org/2000/svg">
 <g opacity=".77591">
  <path transform="matrix(1.1859 0 0 1.1998 -145.56 63.125)" d="m197.57 30.735h-48.122l-48.122-1e-6 48.122-83.35 24.061 41.675z" opacity=".51194"/>
  <path transform="matrix(1.1859 0 0 1.1998 -31.425 63.125)" d="m197.57 30.735h-48.122l-48.122-1e-6 48.122-83.35 24.061 41.675z" opacity=".73038"/>
  <path transform="matrix(1.1859 0 0 -1.1998 -88.495 36.875)" d="m197.57 30.735h-48.122l-48.122-1e-6 48.122-83.35 24.061 41.675z" opacity=".38567"/>
  <path transform="matrix(1.1859 0 0 -1.1998 -202.63 36.875)" d="m197.57 30.735h-48.122l-48.122-1e-6 48.122-83.35 24.061 41.675z" opacity=".75427"/>
  <path transform="matrix(1.1859 0 0 -1.1998 25.645 36.875)" d="m197.57 30.735h-48.122l-48.122-1e-6 48.122-83.35 24.061 41.675z" opacity=".83618"/>
  <path transform="matrix(1.1859 0 0 -1.1998 139.79 36.875)" d="m197.57 30.735h-48.122l-48.122-1e-6 48.122-83.35 24.061 41.675z" opacity=".72355"/>
  <path transform="matrix(1.1859 0 0 -1.1998 139.79 136.88)" d="m197.57 30.735h-48.122l-48.122-1e-6 48.122-83.35 24.061 41.675z" opacity=".31058"/>
  <path transform="matrix(1.1859 0 0 -1.1998 139.79 236.88)" d="m197.57 30.735h-48.122l-48.122-1e-6 48.122-83.35 24.061 41.675z" opacity=".47099"/>
  <path transform="matrix(1.1859 0 0 -1.1998 25.645 136.88)" d="m197.57 30.735h-48.122l-48.122-1e-6 48.122-83.35 24.061 41.675z" opacity=".63822"/>
  <path transform="matrix(1.1859 0 0 -1.1998 -88.495 136.88)" d="m197.57 30.735h-48.122l-48.122-1e-6 48.122-83.35 24.061 41.675z" opacity=".68942"/>
  <path transform="matrix(1.1859 0 0 -1.1998 -202.63 136.88)" d="m197.57 30.735h-48.122l-48.122-1e-6 48.122-83.35 24.061 41.675z" opacity=".31058"/>
  <path transform="matrix(1.1859 0 0 -1.1998 -88.495 236.88)" d="m197.57 30.735h-48.122l-48.122-1e-6 48.122-83.35 24.061 41.675z" opacity=".61433"/>
  <path transform="matrix(1.1859 0 0 -1.1998 25.645 236.88)" d="m197.57 30.735h-48.122l-48.122-1e-6 48.122-83.35 24.061 41.675z" opacity=".77133"/>
  <path transform="matrix(1.1859 0 0 -1.1998 -202.63 236.88)" d="m197.57 30.735h-48.122l-48.122-1e-6 48.122-83.35 24.061 41.675z" opacity=".66553"/>
  <path transform="matrix(1.1859 0 0 1.1998 -31.425 163.12)" d="m197.57 30.735h-48.122l-48.122-1e-6 48.122-83.35 24.061 41.675z" opacity=".44027"/>
  <path transform="matrix(1.1859 0 0 1.1998 -31.425 263.12)" d="m197.57 30.735h-48.122l-48.122-1e-6 48.122-83.35 24.061 41.675z" opacity=".45734"/>
  <path transform="matrix(1.1859 0 0 1.1998 -145.56 263.12)" d="m197.57 30.735h-48.122l-48.122-1e-6 48.122-83.35 24.061 41.675z" opacity=".55631"/>
  <path transform="matrix(1.1859 0 0 1.1998 82.715 263.12)" d="m197.57 30.735h-48.122l-48.122-1e-6 48.122-83.35 24.061 41.675z" opacity=".6587"/>
  <path transform="matrix(1.1859 0 0 1.1998 82.715 163.12)" d="m197.57 30.735h-48.122l-48.122-1e-6 48.122-83.35 24.061 41.675z" opacity=".71672"/>
  <path transform="matrix(1.1859 0 0 1.1998 -145.56 163.12)" d="m197.57 30.735h-48.122l-48.122-1e-6 48.122-83.35 24.061 41.675z" opacity=".76109"/>
  <path transform="matrix(1.1859 0 0 1.1998 82.715 63.125)" d="m197.57 30.735h-48.122l-48.122-1e-6 48.122-83.35 24.061 41.675z" opacity=".50853"/>
 </g>
</svg>
