<?xml version="1.0" encoding="UTF-8" standalone="no"?>
<!-- Created with Inkscape (http://www.inkscape.org/) -->

<svg
   version="1.1"
   id="svg1"
   width="268.83499"
   height="208.368"
   viewBox="0 0 268.835 208.36803"
   sodipodi:docname="InnerLogoNoFonts.svg"
   inkscape:version="1.3.2 (091e20e, 2023-11-25, custom)"
   xmlns:inkscape="http://www.inkscape.org/namespaces/inkscape"
   xmlns:sodipodi="http://sodipodi.sourceforge.net/DTD/sodipodi-0.dtd"
   xmlns:xlink="http://www.w3.org/1999/xlink"
   xmlns="http://www.w3.org/2000/svg"
   xmlns:svg="http://www.w3.org/2000/svg">
  <sodipodi:namedview
     id="namedview1"
     pagecolor="#ffffff"
     bordercolor="#000000"
     borderopacity="0.25"
     inkscape:showpageshadow="2"
     inkscape:pageopacity="0.0"
     inkscape:pagecheckerboard="0"
     inkscape:deskcolor="#d1d1d1"
     inkscape:zoom="1.6425371"
     inkscape:cx="50.227176"
     inkscape:cy="200.6043"
     inkscape:window-width="1920"
     inkscape:window-height="1001"
     inkscape:window-x="-7"
     inkscape:window-y="-7"
     inkscape:window-maximized="1"
     inkscape:current-layer="svg1"
     inkscape:clip-to-page="false" />
  <defs
     id="defs1">
    <linearGradient
       id="linearGradient7">
      <stop
         style="stop-color:#3dffe5;stop-opacity:1;"
         offset="0"
         id="stop7" />
      <stop
         style="stop-color:#38e89f;stop-opacity:1;"
         offset="0.5"
         id="stop9" />
      <stop
         style="stop-color:#4aff80;stop-opacity:1;"
         offset="1"
         id="stop8" />
    </linearGradient>
    <rect
       x="92.621117"
       y="64.397514"
       width="152.64597"
       height="129.59006"
       id="rect1" />
    <rect
       x="86.658386"
       y="68.770187"
       width="42.136646"
       height="42.136646"
       id="rect2" />
    <linearGradient
       xlink:href="#linearGradient7"
       id="linearGradient8"
       x1="215.22723"
       y1="45.760296"
       x2="111.00116"
       y2="265.55963"
       gradientUnits="userSpaceOnUse" />
  </defs>
  <g
     id="g1"
     style="display:inline"
     transform="translate(-26.044484,-50.873177)">
    <g
       id="g6"
       transform="matrix(0.94586555,0,0,0.94586555,8.6865353,8.3939353)">
      <g
         id="g5"
         transform="translate(0.43161697)">
        <path
           id="path2"
           style="display:inline;fill:#ffffff;fill-opacity:1"
           d="M 192.18559 44.916639 C 167.01138 44.925039 141.83578 44.895268 116.66159 44.924898 C 106.55501 44.987308 96.447175 44.877581 86.342554 45.11487 C 83.538266 45.15595 80.717644 45.381395 78.020976 46.201011 C 68.955193 48.775978 61.270627 55.77568 57.937684 64.601403 C 56.339398 68.672295 55.763694 73.082324 55.90375 77.436869 C 55.71706 85.862893 55.618192 94.291921 55.544456 102.7196 C 53.548185 102.7481 51.34244 102.75656 49.477758 102.8373 C 48.447531 102.8833 47.534819 102.94684 46.454733 103.04998 C 42.567999 103.39268 38.749766 104.45567 35.293907 106.27743 C 26.218622 110.94689 19.409148 120.13897 18.250159 130.35426 C 17.791078 136.8459 17.974976 143.35903 17.919774 149.86144 C 17.917274 160.29668 17.945631 170.73199 18.157239 181.16544 C 18.179929 182.32672 18.260124 183.73947 18.427741 184.98758 C 19.286321 192.23992 23.574118 199.19606 30.144027 202.5806 C 35.676392 205.52799 42.071355 206.19805 48.247073 206.13637 C 49.101664 205.89934 49.16425 206.43145 49.046192 207.14198 C 48.947452 218.97622 48.029202 230.85853 49.370382 242.65632 C 49.895609 246.643 51.447211 250.54079 53.995776 253.64576 C 57.97323 258.95249 63.574238 263.38684 70.186716 264.72399 C 74.612698 265.52883 79.129874 265.05212 83.598291 265.16175 C 137.87609 265.19135 192.15291 265.17189 246.43071 265.15349 C 253.23904 264.89881 259.53194 261.18365 263.9721 256.16495 C 267.04739 252.79228 269.61328 248.75896 270.3981 244.19675 C 270.71656 242.6184 270.90781 240.95684 271.02996 239.45365 C 271.14391 237.93962 271.2115 236.50843 271.26329 235.05127 C 271.63828 225.55116 271.06771 216.04848 271.01757 206.54728 C 270.87829 205.78763 272.0305 206.28172 272.51256 206.12604 C 274.61476 206.11024 276.71736 206.03803 278.80846 205.81218 C 279.17423 205.75988 280.00079 205.67462 280.53886 205.58091 C 285.88944 204.82962 291.15889 202.66848 295.0118 198.79769 C 298.83574 195.09711 301.04293 189.96489 301.65047 184.72121 C 302.17395 180.49015 301.89603 176.21879 302.02009 171.96834 C 302.13909 158.64435 302.24287 145.31601 301.96021 131.99379 C 301.23443 118.88608 291.12792 107.10797 278.4884 103.87595 C 273.9235 102.70587 269.17842 102.75475 264.50072 102.73612 C 264.40822 93.791077 264.38733 84.749888 264.08154 75.867539 C 264.00794 73.151206 263.90384 70.412186 263.16266 67.779296 C 260.56531 57.925926 252.76438 49.584517 243.03188 46.494228 C 239.39176 45.249645 235.51877 45.048008 231.70379 45.048793 C 218.53137 44.962233 205.35857 44.890422 192.18559 44.916639 z M 160.02465 54.923181 C 206.31227 54.859029 234.96114 54.935552 236.40972 55.1751 C 242.64206 56.205726 247.36981 59.213541 250.7856 64.320576 C 252.42482 66.771415 253.44936 69.428314 253.98002 72.613245 C 254.15597 73.669244 254.53001 95.871879 254.49831 103.70456 C 254.4636 112.27774 254.54665 112.80194 267.54852 112.76124 C 274.59472 112.73917 278.53205 113.76297 282.51497 116.56687 C 287.73265 120.24001 290.81266 125.02337 291.89585 131.13892 C 292.36127 133.76656 292.07904 179.38079 291.89585 182.04303 C 290.55324 201.55489 267.42621 194.22382 264.11458 196.68116 C 260.80297 199.1385 260.93096 202.23099 261.00896 206.84257 C 260.99412 217.12789 262.53543 240.28023 259.65232 245.25191 C 257.27792 249.34637 252.15087 255.18386 245.60888 255.17586 C 244.67847 255.17486 228.51088 255.15156 160.02465 255.17586 C 91.538417 255.15156 75.372901 255.17486 74.442491 255.17586 C 67.900492 255.18386 62.773456 249.34637 60.399054 245.25191 C 57.51594 240.28023 59.057246 217.12789 59.04241 206.84257 C 59.12037 202.23099 59.246346 199.1385 55.934724 196.68116 C 52.623103 194.22382 29.496073 201.55489 28.153456 182.04303 C 27.970267 179.38079 27.688044 133.76656 28.153456 131.13892 C 29.236653 125.02337 32.316652 120.24001 37.534332 116.56687 C 41.517253 113.76297 45.456655 112.73917 52.502847 112.76124 C 65.504722 112.80194 65.587771 112.27774 65.553064 103.70456 C 65.521354 95.871879 65.89541 73.669244 66.071355 72.613245 C 66.602016 69.428314 67.624481 66.771415 69.263703 64.320576 C 72.679496 59.213541 77.409306 56.205726 83.641655 55.1751 C 85.090234 54.935552 113.73704 54.859029 160.02465 54.923181 z " />
      </g>
      <path
         style="font-size:53.3333px;font-family:Dongle;-inkscape-font-specification:Dongle;white-space:pre;inline-size:183.094;fill:#ffffff"
         d="m 129.65362,96.99379 q -1.65334,0 -2.66667,-0.906666 -0.96,-0.96 -0.96,-2.506666 V 78.700467 q 0,-1.546666 0.90667,-2.399998 0.90666,-0.906666 2.4,-0.906666 h 4.85333 q 3.51999,0 5.97333,1.439999 2.45333,1.386666 3.73333,3.839997 1.33333,2.399999 1.33333,5.49333 0,3.199999 -1.33333,5.65333 -1.33333,2.453332 -3.62667,3.839998 -2.29333,1.333333 -5.11999,1.333333 z m 2.50666,-4.266664 h 2.08 q 3.04,0 4.64,-1.706666 1.6,-1.759999 1.54666,-4.853331 -0.0533,-3.199998 -1.65333,-4.85333 -1.6,-1.653332 -4.58666,-1.653332 h -2.02667 q -1.33333,0 -1.33333,1.333332 v 10.399994 q 0,1.333333 1.33333,1.333333 z m 24.00004,4.799997 q -1.01334,0 -1.70667,-0.586667 -0.69333,-0.639999 -0.69333,-1.653332 v -5.599997 q 0,-0.586666 -0.10667,-1.119999 -0.0533,-0.586666 -0.42667,-1.119999 l -5.97332,-8.586662 q -0.42667,-0.693333 -0.42667,-1.279999 0,-1.013333 0.74666,-1.706666 0.74667,-0.746666 1.76,-0.746666 1.28,0 1.92,1.066666 l 3.94667,6.239996 q 0.48,0.746667 1.01333,0.746667 0.53333,0 1.01333,-0.746667 l 3.84,-6.239996 q 0.64,-1.066666 1.92,-1.066666 1.06667,0 1.76,0.746666 0.74666,0.693333 0.74666,1.706666 0,0.586666 -0.42666,1.279999 l -5.97333,8.586662 q -0.37334,0.533333 -0.48,1.119999 -0.0533,0.533333 -0.0533,1.119999 v 5.599997 q 0,1.013333 -0.69333,1.653332 -0.64,0.586667 -1.70666,0.586667 z m 15.19996,0 q -1.06667,0 -1.76,-0.586667 -0.64,-0.639999 -0.64,-1.653332 V 77.953801 q 0,-1.386666 0.85333,-2.079999 0.85333,-0.746666 1.92,-0.746666 0.74667,0 1.44,0.373333 0.69333,0.32 1.17333,1.066666 l 7.68,11.573327 q 0.21333,0.373333 0.64,0.373333 0.53333,0 0.53333,-0.64 l -0.37333,-10.50666 q -0.0533,-1.066666 0.64,-1.653333 0.69333,-0.586666 1.76,-0.586666 1.06666,0 1.70666,0.586666 0.69333,0.586667 0.69333,1.653333 v 17.279989 q 0,1.333333 -0.85333,2.079999 -0.85333,0.746666 -1.92,0.746666 -0.69333,0 -1.38666,-0.373333 -0.69334,-0.32 -1.17334,-1.066666 l -7.62666,-11.946659 q -0.21333,-0.373333 -0.64,-0.373333 -0.58666,0 -0.58666,0.693333 l 0.32,10.879993 q 0.0533,1.013333 -0.64,1.653332 -0.69334,0.586667 -1.76,0.586667 z m 21.86668,0 q -0.85333,0 -1.65333,-0.64 -0.74667,-0.64 -0.74667,-1.653332 0,-0.426667 0.16,-0.906666 l 6.72,-17.546657 q 0.37333,-0.959999 1.22666,-1.439999 0.85334,-0.479999 1.76,-0.479999 0.96,0 1.81333,0.479999 0.90667,0.48 1.28,1.439999 l 7.2,17.43999 q 0.10667,0.213333 0.10667,0.426666 0,0.213334 0,0.426667 0,1.119999 -0.74667,1.759999 -0.74667,0.639999 -1.65333,0.639999 -0.64,0 -1.28,-0.373333 -0.58667,-0.32 -0.85333,-1.066666 l -1.54667,-4.159997 q -0.0533,-0.32 -0.42667,-0.32 h -7.19999 q -0.37334,0 -0.48,0.32 l -1.49333,4.213331 q -0.37334,0.693332 -0.96,1.066666 -0.58667,0.373333 -1.22667,0.373333 z m 6.08,-10.133328 h 3.14666 q 0.32,0 0.48,-0.213333 0.21333,-0.266666 0.10667,-0.639999 l -1.38667,-3.786665 q -0.32,-0.853333 -0.8,-0.853333 -0.48,0 -0.8,0.906666 l -1.33333,3.786665 q -0.10667,0.32 0.0533,0.586666 0.16,0.213333 0.53334,0.213333 z"
         id="text3"
         transform="matrix(1.9392706,0,0,2.156243,-166.4728,-95.650057)"
         aria-label="DYNA" />
      <path
         style="font-size:53.3333px;font-family:Dongle;-inkscape-font-specification:Dongle;white-space:pre;inline-size:183.094;fill:#fefefe"
         d="m 127.57362,97.527123 q -1.06667,0 -1.81333,-0.8 -0.69334,-0.799999 -0.53334,-1.866665 l 2.24,-17.11999 q 0.16,-1.173333 0.96,-1.866666 0.8,-0.746666 1.92,-0.746666 2.29333,0 2.98666,1.973332 l 3.62667,10.453327 q 0.26667,0.533333 0.53333,0.533333 0.37333,0 0.53333,-0.533333 l 3.62667,-10.453327 q 0.69333,-1.973332 2.93333,-1.973332 1.22667,0 1.97333,0.746666 0.8,0.693333 0.96,1.866666 l 2.24,17.11999 q 0.16,1.066666 -0.58667,1.866665 -0.69333,0.8 -1.75999,0.8 -0.96,0 -1.65334,-0.586667 -0.64,-0.639999 -0.74666,-1.599999 l -0.8,-11.14666 q -0.0533,-0.639999 -0.42667,-0.639999 -0.37333,0 -0.53333,0.533333 l -3.09333,8.693328 q -0.74667,1.973332 -2.66667,1.973332 -0.74666,0 -1.49333,-0.533333 -0.69333,-0.533333 -1.12,-1.386666 l -3.09333,-8.639995 q -0.16,-0.479999 -0.53333,-0.479999 -0.32,0 -0.42667,0.639999 l -0.85333,10.98666 q -0.0533,0.96 -0.74667,1.599999 -0.69333,0.586667 -1.65333,0.586667 z m 36.26667,0 q -3.14667,0 -5.70667,-1.493333 -2.50666,-1.546665 -3.99999,-4.159997 -1.44,-2.613332 -1.44,-5.759997 0,-3.253331 1.44,-5.759996 1.49333,-2.559999 3.99999,-3.999998 2.50667,-1.493332 5.70667,-1.493332 3.19999,0 5.65333,1.493332 2.50666,1.439999 3.89333,3.999998 1.44,2.506665 1.44,5.759996 0,3.199998 -1.44,5.81333 -1.44,2.559999 -3.94667,4.106664 -2.45333,1.493333 -5.59999,1.493333 z m 0,-4.266664 q 2.72,0 4.42666,-2.026666 1.76,-2.026665 1.76,-5.119997 0,-3.093331 -1.76,-5.066663 -1.70666,-1.973333 -4.42666,-1.973333 -2.77333,0 -4.58667,1.973333 -1.76,1.973332 -1.76,5.066663 0,3.093332 1.76,5.119997 1.81334,2.026666 4.58667,2.026666 z m 21.11998,4.266664 q -1.01333,0 -1.70667,-0.586667 -0.69333,-0.639999 -0.69333,-1.653332 V 81.367132 q 0,-1.599999 -1.6,-1.599999 h -2.61333 q -0.96,0 -1.6,-0.586666 -0.58667,-0.64 -0.58667,-1.599999 0,-0.96 0.58667,-1.546666 0.64,-0.639999 1.6,-0.639999 h 13.17333 q 1.01333,0 1.59999,0.639999 0.64,0.586666 0.64,1.546666 0,0.959999 -0.64,1.599999 -0.58666,0.586666 -1.59999,0.586666 h -2.56 q -1.6,0 -1.6,1.599999 v 13.919992 q 0,1.013333 -0.69333,1.653332 -0.64,0.586667 -1.70667,0.586667 z m 14.40001,0 q -1.01333,0 -1.70666,-0.64 -0.69334,-0.64 -0.69334,-1.599999 V 77.420468 q 0,-1.013333 0.69334,-1.653332 0.69333,-0.64 1.70666,-0.64 1.06667,0 1.70667,0.64 0.69333,0.639999 0.69333,1.653332 v 17.866656 q 0,1.013333 -0.69333,1.653332 -0.64,0.586667 -1.70667,0.586667 z m 15.73335,0 q -0.90666,0 -1.76,-0.48 -0.85333,-0.48 -1.22666,-1.439999 l -6.45333,-17.27999 q -0.16,-0.48 -0.16,-0.906666 0,-1.013333 0.74666,-1.653332 0.74667,-0.64 1.70667,-0.64 0.64,0 1.28,0.373333 0.69333,0.32 0.90666,1.066666 l 4.32,12.746659 q 0.32,0.906666 0.8,0.906666 0.48,0 0.8,-0.853332 l 4.58667,-12.74666 q 0.26666,-0.746666 0.85333,-1.066666 0.64,-0.373333 1.28,-0.373333 1.17333,0 1.81333,0.8 0.64,0.799999 0.64,1.706666 0,0.159999 0,0.373333 0,0.16 -0.10667,0.373333 l -6.93333,17.173323 q -0.37333,0.959999 -1.28,1.439999 -0.85333,0.48 -1.81333,0.48 z"
         id="text1"
         transform="matrix(2.3993886,0,0,2.7338689,-260.07517,-81.285493)"
         aria-label="MOTIV" />
      <path
         style="font-size:53.3333px;font-family:Dongle;-inkscape-font-specification:Dongle;white-space:pre;inline-size:183.094;fill:#ffffff"
         d="m 126.82695,97.527123 q -0.85333,0 -1.65333,-0.64 -0.74667,-0.64 -0.74667,-1.653332 0,-0.426667 0.16,-0.906666 l 6.72,-17.546657 q 0.37333,-0.959999 1.22666,-1.439999 0.85334,-0.479999 1.76,-0.479999 0.96,0 1.81334,0.479999 0.90666,0.48 1.27999,1.439999 l 7.2,17.43999 q 0.10667,0.213333 0.10667,0.426666 0,0.213334 0,0.426667 0,1.119999 -0.74667,1.759999 -0.74667,0.639999 -1.65333,0.639999 -0.64,0 -1.28,-0.373333 -0.58667,-0.32 -0.85333,-1.066666 l -1.54667,-4.159997 q -0.0533,-0.32 -0.42667,-0.32 h -7.19999 q -0.37333,0 -0.48,0.32 l -1.49333,4.213331 q -0.37334,0.693332 -0.96,1.066666 -0.58667,0.373333 -1.22667,0.373333 z m 6.08,-10.133328 h 3.14666 q 0.32,0 0.48,-0.213333 0.21334,-0.266666 0.10667,-0.639999 l -1.38667,-3.786665 q -0.32,-0.853333 -0.8,-0.853333 -0.48,0 -0.8,0.906666 l -1.33333,3.786665 q -0.10667,0.32 0.0533,0.586666 0.16,0.213333 0.53334,0.213333 z m 20.58666,10.133328 q -1.01333,0 -1.70666,-0.586667 -0.69333,-0.639999 -0.69333,-1.653332 V 81.367132 q 0,-1.599999 -1.6,-1.599999 h -2.61334 q -0.96,0 -1.59999,-0.586666 -0.58667,-0.64 -0.58667,-1.599999 0,-0.96 0.58667,-1.546666 0.63999,-0.639999 1.59999,-0.639999 h 13.17333 q 1.01333,0 1.6,0.639999 0.64,0.586666 0.64,1.546666 0,0.959999 -0.64,1.599999 -0.58667,0.586666 -1.6,0.586666 h -2.56 q -1.6,0 -1.6,1.599999 v 13.919992 q 0,1.013333 -0.69333,1.653332 -0.64,0.586667 -1.70667,0.586667 z m 14.40002,0 q -1.01334,0 -1.70667,-0.64 -0.69333,-0.64 -0.69333,-1.599999 V 77.420468 q 0,-1.013333 0.69333,-1.653332 0.69333,-0.64 1.70667,-0.64 1.06666,0 1.70666,0.64 0.69333,0.639999 0.69333,1.653332 v 17.866656 q 0,1.013333 -0.69333,1.653332 -0.64,0.586667 -1.70666,0.586667 z m 17.54668,0 q -3.14666,0 -5.70666,-1.493333 -2.50667,-1.546665 -4,-4.159997 -1.44,-2.613332 -1.44,-5.759997 0,-3.253331 1.44,-5.759996 1.49333,-2.559999 4,-3.999998 2.50666,-1.493332 5.70666,-1.493332 3.2,0 5.65333,1.493332 2.50667,1.439999 3.89333,3.999998 1.44,2.506665 1.44,5.759996 0,3.199998 -1.44,5.81333 -1.44,2.559999 -3.94666,4.106664 -2.45333,1.493333 -5.6,1.493333 z m 0,-4.266664 q 2.72,0 4.42667,-2.026666 1.76,-2.026665 1.76,-5.119997 0,-3.093331 -1.76,-5.066663 -1.70667,-1.973333 -4.42667,-1.973333 -2.77333,0 -4.58666,1.973333 -1.76,1.973332 -1.76,5.066663 0,3.093332 1.76,5.119997 1.81333,2.026666 4.58666,2.026666 z m 17.12,4.266664 q -1.06666,0 -1.76,-0.586667 -0.64,-0.639999 -0.64,-1.653332 V 77.953801 q 0,-1.386666 0.85334,-2.079999 0.85333,-0.746666 1.92,-0.746666 0.74666,0 1.43999,0.373333 0.69334,0.32 1.17334,1.066666 l 7.67999,11.573327 q 0.21334,0.373333 0.64,0.373333 0.53334,0 0.53334,-0.64 l -0.37334,-10.50666 q -0.0533,-1.066666 0.64,-1.653333 0.69333,-0.586666 1.76,-0.586666 1.06667,0 1.70667,0.586666 0.69333,0.586667 0.69333,1.653333 v 17.279989 q 0,1.333333 -0.85333,2.079999 -0.85334,0.746666 -1.92,0.746666 -0.69334,0 -1.38667,-0.373333 -0.69333,-0.32 -1.17333,-1.066666 l -7.62666,-11.946659 q -0.21334,-0.373333 -0.64,-0.373333 -0.58667,0 -0.58667,0.693333 l 0.32,10.879993 q 0.0533,1.013333 -0.64,1.653332 -0.69333,0.586667 -1.76,0.586667 z"
         id="text2"
         transform="matrix(1.8934797,0,0,2.084983,-164.3391,39.638245)"
         aria-label="ATION" />
    </g>
  </g>
</svg>
