<?xml version="1.0" encoding="UTF-8"?>
<!-- Created with Inkscape (http://www.inkscape.org/) -->
<svg width="268.83" height="208.37" version="1.1" viewBox="0 0 268.84 208.37" xmlns="http://www.w3.org/2000/svg" xmlns:xlink="http://www.w3.org/1999/xlink">
 <defs>
  <linearGradient id="linearGradient8" x1="215.23" x2="111" y1="45.76" y2="265.56" gradientUnits="userSpaceOnUse">
   <stop stop-color="#3dffe5" offset="0"/>
   <stop stop-color="#38e89f" offset=".5"/>
   <stop stop-color="#4aff80" offset="1"/>
  </linearGradient>
 </defs>
 <g transform="translate(-26.044 -50.873)">
  <g transform="matrix(.94587 0 0 .94587 8.6865 8.3939)">
   <g transform="translate(.43162)">
    <path d="m116.66 44.926c-10.107 0.06241-20.216-0.04768-30.32 0.18961-2.8043 0.04108-5.6233 0.26566-8.32 1.0853-9.0658 2.575-16.752 9.5756-20.085 18.401-1.5983 4.0709-2.173 8.4809-2.0329 12.835-0.18669 8.426-0.28523 16.854-0.35897 25.281-1.9963 0.0285-4.2017 0.0384-6.0664 0.11914-1.0302 0.046-1.9434 0.10975-3.0234 0.21289-3.8867 0.3427-7.7062 1.4056-11.162 3.2274-9.0753 4.6695-15.884 13.86-17.043 24.076-0.45908 6.4916-0.27506 13.005-0.33026 19.507-0.0025 10.435 0.02472 20.871 0.23633 31.305 0.02269 1.1613 0.10294 2.5729 0.27056 3.821 0.85858 7.2523 5.1483 14.209 11.718 17.594 5.5324 2.9474 11.926 3.6162 18.102 3.5545 0.85459-0.23703 0.91826 0.29645 0.8002 1.007-0.09874 11.834-1.0181 23.717 0.32305 35.515 0.52523 3.9867 2.0776 7.883 4.6261 10.988 3.9775 5.3067 9.5788 9.7425 16.191 11.08 4.426 0.80484 8.9421 0.3271 13.411 0.43673 54.278 0.0296 108.56 0.0114 162.83-7e-3 6.8083-0.25468 13.101-3.97 17.541-8.9887 3.0753-3.3727 5.6403-7.4075 6.4251-11.97 0.31846-1.5784 0.50872-3.2398 0.63087-4.743 0.11395-1.514 0.18236-2.9452 0.23415-4.4024 0.37499-9.5001-0.19582-19.003-0.24596-28.504-0.13928-0.75965 1.0123-0.2645 1.4944-0.42018 2.1022-0.0158 4.2059-0.0881 6.297-0.31395 0.36577-0.0523 1.1919-0.13693 1.7299-0.23064 5.3506-0.75129 10.621-2.914 14.474-6.7848 3.824-3.7006 6.0306-8.8324 6.6382-14.076 0.52348-4.2311 0.24589-8.5027 0.36995-12.753 0.119-13.324 0.22286-26.652-0.0598-39.974-0.72578-13.108-10.832-24.886-23.471-28.118-4.5649-1.1701-9.3116-1.1207-13.989-1.1393-0.0925-8.945-0.11218-17.987-0.41797-26.869-0.0736-2.7163-0.17744-5.4558-0.91862-8.0887-2.5974-9.8534-10.4-18.194-20.132-21.284-3.6401-1.2446-7.5132-1.4467-11.328-1.4459-13.172-0.08656-26.345-0.15908-39.518-0.13287-25.174 0.0084-50.348-0.01973-75.523 0.0099z" fill="url(#linearGradient8)"/>
   </g>
  </g>
 </g>
</svg>
