<?xml version="1.0" encoding="UTF-8" standalone="no"?>
<!-- Created with Inkscape (http://www.inkscape.org/) -->

<svg
   version="1.1"
   id="svg1"
   width="268.83499"
   height="208.368"
   viewBox="0 0 268.835 208.36803"
   sodipodi:docname="InnerLogo.svg"
   inkscape:version="1.3.2 (091e20e, 2023-11-25, custom)"
   xmlns:inkscape="http://www.inkscape.org/namespaces/inkscape"
   xmlns:sodipodi="http://sodipodi.sourceforge.net/DTD/sodipodi-0.dtd"
   xmlns:xlink="http://www.w3.org/1999/xlink"
   xmlns="http://www.w3.org/2000/svg"
   xmlns:svg="http://www.w3.org/2000/svg">
  <sodipodi:namedview
     id="namedview1"
     pagecolor="#ffffff"
     bordercolor="#000000"
     borderopacity="0.25"
     inkscape:showpageshadow="2"
     inkscape:pageopacity="0.0"
     inkscape:pagecheckerboard="0"
     inkscape:deskcolor="#d1d1d1"
     inkscape:zoom="1.6425371"
     inkscape:cx="50.531583"
     inkscape:cy="200.6043"
     inkscape:window-width="1920"
     inkscape:window-height="1001"
     inkscape:window-x="-7"
     inkscape:window-y="-7"
     inkscape:window-maximized="1"
     inkscape:current-layer="svg1"
     inkscape:clip-to-page="false" />
  <defs
     id="defs1">
    <linearGradient
       id="linearGradient7">
      <stop
         style="stop-color:#3dffe5;stop-opacity:1;"
         offset="0"
         id="stop7" />
      <stop
         style="stop-color:#38e89f;stop-opacity:1;"
         offset="0.5"
         id="stop9" />
      <stop
         style="stop-color:#4aff80;stop-opacity:1;"
         offset="1"
         id="stop8" />
    </linearGradient>
    <rect
       x="92.621117"
       y="64.397514"
       width="152.64597"
       height="129.59006"
       id="rect1" />
    <rect
       x="86.658386"
       y="68.770187"
       width="42.136646"
       height="42.136646"
       id="rect2" />
    <linearGradient
       xlink:href="#linearGradient7"
       id="linearGradient8"
       x1="215.22723"
       y1="45.760296"
       x2="111.00116"
       y2="265.55963"
       gradientUnits="userSpaceOnUse" />
  </defs>
  <g
     id="g1"
     style="display:inline"
     transform="translate(-26.044484,-50.873177)">
    <g
       id="g6"
       transform="matrix(0.94586555,0,0,0.94586555,8.6865353,8.3939353)">
      <g
         id="g5"
         transform="translate(0.43161697)">
        <path
           id="path2"
           style="display:inline;fill:url(#linearGradient8);fill-opacity:1"
           d="m 116.66211,44.925781 c -10.10659,0.06241 -20.215567,-0.04768 -30.320198,0.189609 -2.804291,0.04108 -5.62329,0.265659 -8.319961,1.085276 -9.065792,2.574969 -16.752165,9.575592 -20.085111,18.401324 -1.598288,4.070896 -2.173005,8.480858 -2.032949,12.835407 -0.18669,8.426032 -0.285233,16.853667 -0.358969,25.281353 -1.996273,0.0285 -4.201722,0.0384 -6.066406,0.11914 -1.030228,0.046 -1.943351,0.10975 -3.023438,0.21289 -3.886738,0.3427 -7.706221,1.40563 -11.162083,3.2274 -9.075294,4.66946 -15.883819,13.86036 -17.042809,24.07566 -0.459082,6.49165 -0.275062,13.00507 -0.330264,19.50749 -0.0025,10.43525 0.02472,20.87123 0.236328,31.30469 0.02269,1.16128 0.102943,2.57291 0.270561,3.82102 0.85858,7.25234 5.148296,14.2094 11.718212,17.59394 5.53237,2.9474 11.926082,3.61615 18.101806,3.55447 0.854592,-0.23703 0.91826,0.29645 0.800202,1.00698 -0.09874,11.83425 -1.018132,23.71673 0.32305,35.51454 0.525227,3.98668 2.077562,7.88298 4.626129,10.98796 3.977458,5.30673 9.578805,9.74253 16.19129,11.07968 4.425986,0.80484 8.942124,0.3271 13.410546,0.43673 54.277854,0.0296 108.555734,0.0114 162.833594,-0.007 6.80833,-0.25468 13.10122,-3.97001 17.54139,-8.98872 3.07529,-3.37267 5.64026,-7.40749 6.42508,-11.96971 0.31846,-1.57835 0.50872,-3.23978 0.63087,-4.74297 0.11395,-1.51403 0.18236,-2.94523 0.23415,-4.40239 0.37499,-9.50012 -0.19582,-19.00267 -0.24596,-28.50388 -0.13928,-0.75965 1.01233,-0.2645 1.49439,-0.42018 2.1022,-0.0158 4.20592,-0.0881 6.29703,-0.31395 0.36577,-0.0523 1.19186,-0.13693 1.72993,-0.23064 5.35059,-0.75129 10.62075,-2.91402 14.47366,-6.78482 3.82395,-3.70058 6.03062,-8.83236 6.63816,-14.07604 0.52348,-4.23106 0.24589,-8.50274 0.36995,-12.75319 0.119,-13.324 0.22286,-26.65185 -0.0598,-39.97408 -0.72578,-13.10773 -10.83168,-24.88608 -23.47121,-28.11811 -4.56491,-1.17008 -9.31163,-1.12066 -13.98933,-1.13929 -0.0925,-8.945049 -0.11218,-17.986784 -0.41797,-26.869142 -0.0736,-2.716336 -0.17744,-5.455841 -0.91862,-8.088734 -2.59735,-9.85338 -10.39955,-18.193532 -20.13206,-21.283824 -3.64012,-1.244584 -7.51323,-1.446707 -11.32821,-1.445922 -13.17244,-0.08656 -26.34538,-0.159083 -39.51837,-0.132866 -25.17423,0.0084 -50.34845,-0.01973 -75.52266,0.0099 z" />
        <path
           style="display:inline;fill:#893750;fill-opacity:1"
           d="m 161.993,255.17682 c -68.486305,-0.0243 -84.653217,-0.001 -85.583628,0 -6.542006,0.008 -11.668252,-5.8296 -14.042656,-9.92406 -2.883117,-4.97169 -1.342668,-28.12515 -1.357504,-38.41048 0.07796,-4.61158 0.205448,-7.70455 -3.106177,-10.1619 -3.311624,-2.45734 -26.438481,4.87378 -27.781099,-14.6381 -0.18319,-2.66224 -0.465413,-48.27473 0,-50.90237 1.083198,-6.11556 4.163341,-10.9007 9.381026,-14.57384 3.982925,-2.8039 7.920502,-3.827 14.966701,-3.80493 13.001888,0.0407 13.085627,-0.48423 13.05092,-9.05742 -0.03171,-7.832688 0.342138,-30.033727 0.518084,-31.089727 0.530661,-3.184934 1.553991,-5.842802 3.193214,-8.293644 3.415797,-5.10704 8.144194,-8.115007 14.376549,-9.145634 1.448581,-0.239548 30.09691,-0.316002 76.38457,-0.25185 m 0,200.253955 c 68.4863,-0.0243 84.65322,-0.001 85.58363,0 6.542,0.008 11.66825,-5.8296 14.04265,-9.92406 2.88312,-4.97169 1.34267,-28.12515 1.35751,-38.41048 -0.078,-4.61158 -0.20545,-7.70455 3.10617,-10.1619 3.31163,-2.45734 26.43849,4.87378 27.7811,-14.6381 0.18319,-2.66224 0.46542,-48.27473 0,-50.90237 -1.08319,-6.11556 -4.16334,-10.9007 -9.38102,-14.57384 -3.98293,-2.8039 -7.9205,-3.827 -14.9667,-3.80493 -13.00189,0.0407 -13.08563,-0.48423 -13.05092,-9.05742 0.0317,-7.832688 -0.34214,-30.033727 -0.51809,-31.089727 -0.53066,-3.184934 -1.55399,-5.842802 -3.19321,-8.293644 -3.4158,-5.10704 -8.1442,-8.115007 -14.37655,-9.145634 -1.44858,-0.239548 -30.09691,-0.316002 -76.38457,-0.25185"
           id="path6"
           transform="translate(-1.9676015)" />
      </g>
      <text
         xml:space="preserve"
         style="font-size:53.3333px;white-space:pre;inline-size:183.094;display:inline;opacity:1;fill:#ffffff;fill-opacity:1;stroke:none;stroke-opacity:1"
         x="123.62733"
         y="96.99379"
         id="text3"
         transform="matrix(1.9392706,0,0,2.156243,-166.4728,-95.650057)"><tspan
           x="123.62733"
           y="96.99379"
           id="tspan8"><tspan
             style="font-family:Dongle;-inkscape-font-specification:Dongle"
             id="tspan7">DYNA</tspan></tspan></text>
      <text
         xml:space="preserve"
         style="font-size:53.3333px;white-space:pre;inline-size:183.094;display:inline;opacity:1;fill:#fefefe;fill-opacity:1;stroke:none;stroke-opacity:1"
         x="123.62733"
         y="96.99379"
         id="text1"
         transform="matrix(2.3993886,0,0,2.7338689,-260.07517,-81.285493)"><tspan
           x="123.62733"
           y="96.99379"
           id="tspan10"><tspan
             style="font-family:Dongle;-inkscape-font-specification:Dongle"
             id="tspan9">MOTIV</tspan></tspan></text>
      <text
         xml:space="preserve"
         style="font-size:53.3333px;white-space:pre;inline-size:183.094;display:inline;opacity:1;fill:#ffffff;fill-opacity:1;stroke:none;stroke-opacity:1"
         x="123.62733"
         y="96.99379"
         id="text2"
         transform="matrix(1.8934797,0,0,2.084983,-164.3391,39.638245)"><tspan
           x="123.62733"
           y="96.99379"
           id="tspan12"><tspan
             style="font-family:Dongle;-inkscape-font-specification:Dongle"
             id="tspan11">ATION</tspan></tspan></text>
    </g>
  </g>
</svg>
