<?xml version="1.0" encoding="UTF-8"?>
<!-- Created with Inkscape (http://www.inkscape.org/) -->
<svg width="268.83" height="208.37" version="1.1" viewBox="0 0 268.84 208.37" xmlns="http://www.w3.org/2000/svg" xmlns:xlink="http://www.w3.org/1999/xlink">
 <g transform="translate(-26.044 -50.873)">
  <g transform="matrix(.94587 0 0 .94587 8.6865 8.3939)">
   <g transform="translate(.43162)">
    <path transform="translate(-1.9676)" d="m161.99 255.18c-68.486-0.0243-84.653-1e-3 -85.584 0-6.542 8e-3 -11.668-5.8296-14.043-9.9241-2.8831-4.9717-1.3427-28.125-1.3575-38.41 0.07796-4.6116 0.20545-7.7046-3.1062-10.162-3.3116-2.4573-26.438 4.8738-27.781-14.638-0.18319-2.6622-0.46541-48.275 0-50.902 1.0832-6.1156 4.1633-10.901 9.381-14.574 3.9829-2.8039 7.9205-3.827 14.967-3.8049 13.002 0.0407 13.086-0.48423 13.051-9.0574-0.03171-7.8327 0.34214-30.034 0.51808-31.09 0.53066-3.1849 1.554-5.8428 3.1932-8.2936 3.4158-5.107 8.1442-8.115 14.377-9.1456 1.4486-0.23955 30.097-0.316 76.385-0.25185m0 200.25c68.486-0.0243 84.653-1e-3 85.584 0 6.542 8e-3 11.668-5.8296 14.043-9.9241 2.8831-4.9717 1.3427-28.125 1.3575-38.41-0.078-4.6116-0.20545-7.7046 3.1062-10.162 3.3116-2.4573 26.438 4.8738 27.781-14.638 0.18319-2.6622 0.46542-48.275 0-50.902-1.0832-6.1156-4.1633-10.901-9.381-14.574-3.9829-2.8039-7.9205-3.827-14.967-3.8049-13.002 0.0407-13.086-0.48423-13.051-9.0574 0.0317-7.8327-0.34214-30.034-0.51809-31.09-0.53066-3.1849-1.554-5.8428-3.1932-8.2936-3.4158-5.107-8.1442-8.115-14.377-9.1456-1.4486-0.23955-30.097-0.316-76.385-0.25185" fill="#893750"/>
   </g>
   <path transform="matrix(1.9393 0 0 2.1562 -166.47 -95.65)" d="m129.65 96.994q-1.6533 0-2.6667-0.90667-0.96-0.96-0.96-2.5067v-14.88q0-1.5467 0.90667-2.4 0.90666-0.90667 2.4-0.90667h4.8533q3.52 0 5.9733 1.44 2.4533 1.3867 3.7333 3.84 1.3333 2.4 1.3333 5.4933 0 3.2-1.3333 5.6533-1.3333 2.4533-3.6267 3.84-2.2933 1.3333-5.12 1.3333zm2.5067-4.2667h2.08q3.04 0 4.64-1.7067 1.6-1.76 1.5467-4.8533-0.0533-3.2-1.6533-4.8533-1.6-1.6533-4.5867-1.6533h-2.0267q-1.3333 0-1.3333 1.3333v10.4q0 1.3333 1.3333 1.3333zm24 4.8q-1.0133 0-1.7067-0.58667-0.69333-0.64-0.69333-1.6533v-5.6q0-0.58667-0.10667-1.12-0.0533-0.58667-0.42667-1.12l-5.9733-8.5867q-0.42667-0.69333-0.42667-1.28 0-1.0133 0.74666-1.7067 0.74667-0.74667 1.76-0.74667 1.28 0 1.92 1.0667l3.9467 6.24q0.48 0.74667 1.0133 0.74667t1.0133-0.74667l3.84-6.24q0.64-1.0667 1.92-1.0667 1.0667 0 1.76 0.74667 0.74666 0.69333 0.74666 1.7067 0 0.58667-0.42666 1.28l-5.9733 8.5867q-0.37334 0.53333-0.48 1.12-0.0533 0.53333-0.0533 1.12v5.6q0 1.0133-0.69333 1.6533-0.64 0.58667-1.7067 0.58667zm15.2 0q-1.0667 0-1.76-0.58667-0.64-0.64-0.64-1.6533v-17.333q0-1.3867 0.85333-2.08 0.85333-0.74667 1.92-0.74667 0.74667 0 1.44 0.37333 0.69333 0.32 1.1733 1.0667l7.68 11.573q0.21333 0.37333 0.64 0.37333 0.53333 0 0.53333-0.64l-0.37333-10.507q-0.0533-1.0667 0.64-1.6533 0.69333-0.58667 1.76-0.58667 1.0667 0 1.7067 0.58667 0.69333 0.58667 0.69333 1.6533v17.28q0 1.3333-0.85333 2.08t-1.92 0.74667q-0.69333 0-1.3867-0.37333-0.69334-0.32-1.1733-1.0667l-7.6267-11.947q-0.21333-0.37333-0.64-0.37333-0.58666 0-0.58666 0.69333l0.32 10.88q0.0533 1.0133-0.64 1.6533-0.69334 0.58667-1.76 0.58667zm21.867 0q-0.85333 0-1.6533-0.64-0.74667-0.64-0.74667-1.6533 0-0.42667 0.16-0.90667l6.72-17.547q0.37333-0.96 1.2267-1.44 0.85334-0.48 1.76-0.48 0.96 0 1.8133 0.48 0.90667 0.48 1.28 1.44l7.2 17.44q0.10667 0.21333 0.10667 0.42667 0 0.21333 0 0.42667 0 1.12-0.74667 1.76-0.74667 0.64-1.6533 0.64-0.64 0-1.28-0.37333-0.58667-0.32-0.85333-1.0667l-1.5467-4.16q-0.0533-0.32-0.42667-0.32h-7.2q-0.37334 0-0.48 0.32l-1.4933 4.2133q-0.37334 0.69333-0.96 1.0667-0.58667 0.37333-1.2267 0.37333zm6.08-10.133h3.1467q0.32 0 0.48-0.21333 0.21333-0.26667 0.10667-0.64l-1.3867-3.7867q-0.32-0.85333-0.8-0.85333t-0.8 0.90667l-1.3333 3.7867q-0.10667 0.32 0.0533 0.58667 0.16 0.21333 0.53334 0.21333z" fill="#fff" style="inline-size:183.094;white-space:pre" aria-label="DYNA"/>
   <path transform="matrix(2.3994 0 0 2.7339 -260.08 -81.285)" d="m127.57 97.527q-1.0667 0-1.8133-0.8-0.69334-0.8-0.53334-1.8667l2.24-17.12q0.16-1.1733 0.96-1.8667 0.8-0.74667 1.92-0.74667 2.2933 0 2.9867 1.9733l3.6267 10.453q0.26667 0.53333 0.53333 0.53333 0.37333 0 0.53333-0.53333l3.6267-10.453q0.69333-1.9733 2.9333-1.9733 1.2267 0 1.9733 0.74667 0.8 0.69333 0.96 1.8667l2.24 17.12q0.16 1.0667-0.58667 1.8667-0.69333 0.8-1.76 0.8-0.96 0-1.6533-0.58667-0.64-0.64-0.74666-1.6l-0.8-11.147q-0.0533-0.64-0.42667-0.64-0.37333 0-0.53333 0.53333l-3.0933 8.6933q-0.74667 1.9733-2.6667 1.9733-0.74666 0-1.4933-0.53333-0.69333-0.53333-1.12-1.3867l-3.0933-8.64q-0.16-0.48-0.53333-0.48-0.32 0-0.42667 0.64l-0.85333 10.987q-0.0533 0.96-0.74667 1.6-0.69333 0.58667-1.6533 0.58667zm36.267 0q-3.1467 0-5.7067-1.4933-2.5067-1.5467-4-4.16-1.44-2.6133-1.44-5.76 0-3.2533 1.44-5.76 1.4933-2.56 4-4 2.5067-1.4933 5.7067-1.4933 3.2 0 5.6533 1.4933 2.5067 1.44 3.8933 4 1.44 2.5067 1.44 5.76 0 3.2-1.44 5.8133-1.44 2.56-3.9467 4.1067-2.4533 1.4933-5.6 1.4933zm0-4.2667q2.72 0 4.4267-2.0267 1.76-2.0267 1.76-5.12 0-3.0933-1.76-5.0667-1.7067-1.9733-4.4267-1.9733-2.7733 0-4.5867 1.9733-1.76 1.9733-1.76 5.0667 0 3.0933 1.76 5.12 1.8133 2.0267 4.5867 2.0267zm21.12 4.2667q-1.0133 0-1.7067-0.58667-0.69333-0.64-0.69333-1.6533v-13.92q0-1.6-1.6-1.6h-2.6133q-0.96 0-1.6-0.58667-0.58667-0.64-0.58667-1.6 0-0.96 0.58667-1.5467 0.64-0.64 1.6-0.64h13.173q1.0133 0 1.6 0.64 0.64 0.58667 0.64 1.5467 0 0.96-0.64 1.6-0.58666 0.58667-1.6 0.58667h-2.56q-1.6 0-1.6 1.6v13.92q0 1.0133-0.69333 1.6533-0.64 0.58667-1.7067 0.58667zm14.4 0q-1.0133 0-1.7067-0.64-0.69334-0.64-0.69334-1.6v-17.867q0-1.0133 0.69334-1.6533 0.69333-0.64 1.7067-0.64 1.0667 0 1.7067 0.64 0.69333 0.64 0.69333 1.6533v17.867q0 1.0133-0.69333 1.6533-0.64 0.58667-1.7067 0.58667zm15.733 0q-0.90666 0-1.76-0.48-0.85333-0.48-1.2267-1.44l-6.4533-17.28q-0.16-0.48-0.16-0.90667 0-1.0133 0.74666-1.6533 0.74667-0.64 1.7067-0.64 0.64 0 1.28 0.37333 0.69333 0.32 0.90666 1.0667l4.32 12.747q0.32 0.90667 0.8 0.90667t0.8-0.85333l4.5867-12.747q0.26666-0.74667 0.85333-1.0667 0.64-0.37333 1.28-0.37333 1.1733 0 1.8133 0.8 0.64 0.8 0.64 1.7067 0 0.16 0 0.37333 0 0.16-0.10667 0.37333l-6.9333 17.173q-0.37333 0.96-1.28 1.44-0.85333 0.48-1.8133 0.48z" fill="#fefefe" style="inline-size:183.094;white-space:pre" aria-label="MOTIV"/>
   <path transform="matrix(1.8935 0 0 2.085 -164.34 39.638)" d="m126.83 97.527q-0.85333 0-1.6533-0.64-0.74667-0.64-0.74667-1.6533 0-0.42667 0.16-0.90667l6.72-17.547q0.37333-0.96 1.2267-1.44 0.85334-0.48 1.76-0.48 0.96 0 1.8133 0.48 0.90666 0.48 1.28 1.44l7.2 17.44q0.10667 0.21333 0.10667 0.42667 0 0.21333 0 0.42667 0 1.12-0.74667 1.76-0.74667 0.64-1.6533 0.64-0.64 0-1.28-0.37333-0.58667-0.32-0.85333-1.0667l-1.5467-4.16q-0.0533-0.32-0.42667-0.32h-7.2q-0.37333 0-0.48 0.32l-1.4933 4.2133q-0.37334 0.69333-0.96 1.0667-0.58667 0.37333-1.2267 0.37333zm6.08-10.133h3.1467q0.32 0 0.48-0.21333 0.21334-0.26667 0.10667-0.64l-1.3867-3.7867q-0.32-0.85333-0.8-0.85333t-0.8 0.90667l-1.3333 3.7867q-0.10667 0.32 0.0533 0.58667 0.16 0.21333 0.53334 0.21333zm20.587 10.133q-1.0133 0-1.7067-0.58667-0.69333-0.64-0.69333-1.6533v-13.92q0-1.6-1.6-1.6h-2.6133q-0.96 0-1.6-0.58667-0.58667-0.64-0.58667-1.6 0-0.96 0.58667-1.5467 0.63999-0.64 1.6-0.64h13.173q1.0133 0 1.6 0.64 0.64 0.58667 0.64 1.5467 0 0.96-0.64 1.6-0.58667 0.58667-1.6 0.58667h-2.56q-1.6 0-1.6 1.6v13.92q0 1.0133-0.69333 1.6533-0.64 0.58667-1.7067 0.58667zm14.4 0q-1.0133 0-1.7067-0.64t-0.69333-1.6v-17.867q0-1.0133 0.69333-1.6533 0.69333-0.64 1.7067-0.64 1.0667 0 1.7067 0.64 0.69333 0.64 0.69333 1.6533v17.867q0 1.0133-0.69333 1.6533-0.64 0.58667-1.7067 0.58667zm17.547 0q-3.1467 0-5.7067-1.4933-2.5067-1.5467-4-4.16-1.44-2.6133-1.44-5.76 0-3.2533 1.44-5.76 1.4933-2.56 4-4 2.5067-1.4933 5.7067-1.4933t5.6533 1.4933q2.5067 1.44 3.8933 4 1.44 2.5067 1.44 5.76 0 3.2-1.44 5.8133-1.44 2.56-3.9467 4.1067-2.4533 1.4933-5.6 1.4933zm0-4.2667q2.72 0 4.4267-2.0267 1.76-2.0267 1.76-5.12 0-3.0933-1.76-5.0667-1.7067-1.9733-4.4267-1.9733-2.7733 0-4.5867 1.9733-1.76 1.9733-1.76 5.0667 0 3.0933 1.76 5.12 1.8133 2.0267 4.5867 2.0267zm17.12 4.2667q-1.0667 0-1.76-0.58667-0.64-0.64-0.64-1.6533v-17.333q0-1.3867 0.85334-2.08 0.85333-0.74667 1.92-0.74667 0.74666 0 1.44 0.37333 0.69334 0.32 1.1733 1.0667l7.68 11.573q0.21334 0.37333 0.64 0.37333 0.53334 0 0.53334-0.64l-0.37334-10.507q-0.0533-1.0667 0.64-1.6533 0.69333-0.58667 1.76-0.58667t1.7067 0.58667q0.69333 0.58667 0.69333 1.6533v17.28q0 1.3333-0.85333 2.08-0.85334 0.74667-1.92 0.74667-0.69334 0-1.3867-0.37333-0.69333-0.32-1.1733-1.0667l-7.6267-11.947q-0.21334-0.37333-0.64-0.37333-0.58667 0-0.58667 0.69333l0.32 10.88q0.0533 1.0133-0.64 1.6533-0.69333 0.58667-1.76 0.58667z" fill="#fff" style="inline-size:183.094;white-space:pre" aria-label="ATION"/>
  </g>
 </g>
</svg>
