<?xml version="1.0" encoding="UTF-8"?>
<!-- Created with Inkscape (http://www.inkscape.org/) -->
<svg width="300" height="300" version="1.1" viewBox="0 0 300 300" xmlns="http://www.w3.org/2000/svg">
 <g fill="#fff">
  <path d="m24.829 203.59v-20.843l5.1-5.1h15.433l5.0113 5.0113v4.7452h-6.0313v-2.5278l-2.0843-2.0843h-9.1356l-2.2617 2.2617v16.231l2.2617 2.2617h9.2243l2.173-2.173v-4.8339h-6.6522v-5.1443h12.506v12.196l-5.1 5.1h-15.344zm30.423-25.943h22.44v5.1h-16.409v7.8496h15.123v5.0113h-15.123v7.9826h16.409v5.1h-22.44zm26.875 0h5.4104l13.836 21.065h0.0887v-21.065h5.8096v31.043h-5.4104l-13.836-21.021h-0.0887v21.021h-5.8095zm30.91 0h22.44v5.1h-16.409v7.8496h15.123v5.0113h-15.123v7.9826h16.409v5.1h-22.44zm51.266 20.755v10.289h-6.0313v-8.9139l-2.6609-2.9713h-9.6678v11.885h-6.0313v-31.043h19.469l4.7452 4.7896v9.4017l-3.0156 3.06zm-18.36-6.5635h10.688l1.5522-1.5522v-6.0313l-1.5522-1.5522h-10.688zm32.596-14.191h5.4991l11.353 31.043h-6.12l-2.5278-6.8739h-10.91l-2.5278 6.8739h-6.12zm6.8739 19.203-4.1243-11.796h-0.0887l-3.9913 11.796zm16.143-14.103h-9.2687v-5.1h24.569v5.1h-9.2687v25.943h-6.0313zm17.739 20.843v-20.843l5.1-5.1h15.965l5.1 5.1v20.843l-5.1 5.1h-15.965zm17.872-0.0443 2.2617-2.2617v-16.231l-2.2617-2.2617h-9.5791l-2.2617 2.2617v16.231l2.2617 2.2617zm38.006-5.1443v10.289h-6.0313v-8.9139l-2.6609-2.9713h-9.6678v11.885h-6.0313v-31.043h19.469l4.7452 4.7896v9.4017l-3.0156 3.06zm-18.36-6.5635h10.688l1.5522-1.5522v-6.0313l-1.5522-1.5522h-10.688z" stroke-width=".83152" aria-label="GENERATOR"/>
  <path transform="scale(1.0104 .98973)" d="m24.77 144.39h16.484l3.755 3.755v7.3598l-1.502 1.5395 2.666 2.7036v6.8716l-4.0554 4.0554h-17.348zm13.856 11.002 1.3518-1.3518v-4.0554l-1.3142-1.3142h-8.8993v6.7214zm0.9012 11.002 1.6146-1.6146v-3.6799l-1.6146-1.6146h-9.7629v6.9092zm17.761-22.004h4.6562l9.6127 26.285h-5.1819l-2.1403-5.8202h-9.2373l-2.1403 5.8202h-5.1819zm5.8202 16.259-3.4921-9.9882h-0.0751l-3.3795 9.9882zm10.138 5.7076v-17.648l4.3182-4.3182h12.842l4.2431 4.2431v4.0178h-5.1068v-2.1403l-1.7648-1.7648h-7.51l-1.915 1.915v13.743l1.915 1.915h7.51l1.7648-1.7648v-2.1403h5.1068v4.0178l-4.2431 4.2431h-12.842zm24.971-21.967h5.1068v11.002h3.9803l6.3459-11.002h5.7451l-7.6977 13.105 8.3361 13.18h-5.8578l-6.9092-10.927h-3.9427v10.927h-5.1068zm22.755 21.967v-17.648l4.3182-4.3182h13.067l4.2431 4.2431v4.0178h-5.1068v-2.1403l-1.7648-1.7648h-7.7353l-1.915 1.915v13.743l1.915 1.915h7.8104l1.8399-1.8399v-4.0929h-5.6325v-4.3558h10.589v10.326l-4.3182 4.3182h-12.992zm46.412-4.3933v8.7116h-5.1068v-7.5475l-2.253-2.5158h-8.1858v10.063h-5.1068v-26.285h16.484l4.0178 4.0554v7.9606l-2.5534 2.5909zm-15.546-5.5574h9.0495l1.3142-1.3142v-5.1068l-1.3142-1.3142h-9.0495zm19.864 9.9507v-17.648l4.3182-4.3182h13.518l4.3182 4.3182v17.648l-4.3182 4.3182h-13.518zm15.133-0.0375 1.915-1.915v-13.743l-1.915-1.915h-8.1108l-1.915 1.915v13.743l1.915 1.915zm11.528-0.1502v-21.779h5.1068v20.014l1.915 1.915h7.3598l1.915-1.915v-20.014h5.1068v21.779l-4.506 4.506h-12.391zm26.285-21.779h4.5811l11.716 17.836h0.0751v-17.836h4.919v26.285h-4.5811l-11.716-17.799h-0.0751v17.799h-4.919zm26.172 0h16.822l4.506 4.506v17.273l-4.506 4.506h-16.822zm14.306 21.929 1.915-1.915v-13.743l-1.915-1.915h-9.1997v17.573z" stroke-width=".70406" aria-label="BACKGROUND"/>
  <path d="m25.027 126.89v-29.801l7.2918-7.2918h22.066l7.165 7.165v6.7846h-8.6234v-3.6142l-2.9801-2.9801h-13.062l-3.2338 3.2338v23.207l3.2338 3.2338h13.189l3.107-3.107v-6.9114h-9.5111v-7.3552h17.881v17.437l-7.2918 7.2918h-21.939zm43.497-37.093h32.084v7.2918h-23.461v11.223h21.622v7.165h-21.622v11.413h23.461v7.2918h-32.084zm37.791 37.093v-29.801l7.2918-7.2918h22.827l7.2918 7.2918v29.801l-7.2918 7.2918h-22.827zm25.553-0.0634 3.2338-3.2338v-23.207l-3.2338-3.2338h-13.696l-3.2338 3.2338v23.207l3.2338 3.2338z" stroke-width="1.1889" aria-label="GEO"/>
 </g>
</svg>
