<?xml version="1.0" encoding="UTF-8" standalone="no"?>
<svg
   width="96"
   height="96"
   version="1.1"
   viewBox="0 0 96.004 96"
   id="svg5"
   xmlns:xlink="http://www.w3.org/1999/xlink"
   xmlns="http://www.w3.org/2000/svg"
   xmlns:svg="http://www.w3.org/2000/svg">
  <defs
     id="defs3">
    <linearGradient
       id="a"
       x1="215.23"
       x2="111"
       y1="45.76"
       y2="265.56"
       gradientTransform="translate(-128.00533,4.7748219)"
       gradientUnits="userSpaceOnUse">
      <stop
         stop-color="#3dffe5"
         offset="0"
         id="stop1" />
      <stop
         stop-color="#38e89f"
         offset=".5"
         id="stop2" />
      <stop
         stop-color="#4aff80"
         offset="1"
         id="stop3" />
    </linearGradient>
    <linearGradient
       xlink:href="#a"
       id="linearGradient6"
       gradientUnits="userSpaceOnUse"
       gradientTransform="translate(-128.00533,4.7748219)"
       x1="224.00932"
       y1="-4.7768221"
       x2="117.39314"
       y2="137.69716" />
  </defs>
  <path
     d="m 38.755521,28.548018 c -2.407689,0 -3.611479,1.338813 -3.611479,4.015792 v 31.321617 c 0,2.676978 1.20379,4.015793 3.611479,4.015793 v -0.002 h 5.635 c 5.489582,0 9.677583,-1.712143 12.56693,-5.138886 2.889347,-3.533714 4.285998,-8.407106 4.189628,-14.617797 C 61.050829,41.717756 59.559598,36.846319 56.67033,33.526741 53.780984,30.207359 49.639391,28.548018 44.245984,28.548018 Z"
     style="white-space:pre;inline-size:183.094;opacity:1;vector-effect:none;fill:#ffffff;stroke-width:0.337789;stop-color:#000000;stop-opacity:1;font-variation-settings:normal;fill-opacity:1;stroke-linecap:butt;stroke-linejoin:miter;stroke-miterlimit:4;stroke-dasharray:none;stroke-dashoffset:0;stroke-opacity:1;-inkscape-stroke:none"
     id="path8" />
  <path
     d="M 39.777048,0.01362565 C 35.20776,0.04718178 30.63266,-0.08195518 26.067492,0.13667765 17.857638,0.70274705 10.482807,7.009944 8.4495708,14.953701 7.0299901,20.023115 7.6705566,25.331845 7.5315638,30.520756 c 0.015287,15.260154 -0.057889,30.522251 0.089848,45.781204 0.4297339,6.834635 4.0273147,13.657344 10.0726857,17.108135 4.485535,2.739084 9.906824,3.259831 15.051408,3.02161 6.471659,-0.08575 12.964943,0.243664 19.418778,-0.349624 C 62.494502,94.756378 72.147732,89.072956 78.389985,80.745505 85.298053,71.850616 88.661607,60.526265 88.734166,49.335993 88.990779,38.878107 86.456441,28.237704 80.782663,19.385527 74.468852,9.4965906 63.823247,2.4654463 52.207253,0.69920109 48.104994,-9.90178e-4 43.927219,-0.03532222 39.777048,0.01362565 Z M 31.098952,15.69592 h 13.147032 c 6.356523,0 11.748314,1.445005 16.178409,4.336118 4.430291,2.784144 7.802381,6.639248 10.113702,11.564935 2.407692,4.818718 3.611479,10.334921 3.611479,16.545611 0,6.424827 -1.203787,12.098459 -3.611479,17.024147 -2.407691,4.925688 -5.68325,8.780792 -9.824628,11.564935 -4.141181,2.676981 -8.763274,4.015792 -13.867765,4.015792 l -14.879526,0.002 c -2.985521,0 -5.392901,-0.910181 -7.222958,-2.730582 -1.733588,-1.927468 -2.60167,-4.443757 -2.60167,-7.549143 V 25.655319 c 0,-3.105443 0.819856,-5.515545 2.457133,-7.228817 1.637255,-1.8204 3.803607,-2.730582 6.500271,-2.730582 z"
     style="white-space:pre;inline-size:183.094;opacity:1;vector-effect:none;fill:url(#linearGradient6);stroke-width:0.33779;stop-color:#000000;stop-opacity:1"
     id="path7" />
</svg>
