<svg width="268.83" height="208.37" viewBox="0 0 268.84 208.37" xmlns="http://www.w3.org/2000/svg" xmlns:xlink="http://www.w3.org/1999/xlink"><g transform="translate(-26.044 -50.873)"><g transform="matrix(.94587 0 0 .94587 8.6865 8.3939)"><g transform="translate(.43162)"><path d="m192.19 44.917c-25.174.0084-50.35-.021371-75.524.008259-10.107.06241-20.214-.047317-30.319.18997-2.8043.04108-5.6249.26652-8.3216 1.0861-9.0658 2.575-16.75 9.5747-20.083 18.4-1.5983 4.0709-2.174 8.4809-2.0339 12.835-.18669 8.426-.28556 16.855-.35929 25.283-1.9963.0285-4.202.03696-6.0667.1177-1.0302.046-1.9429.10954-3.023.21268-3.8867.3427-7.705 1.4057-11.161 3.2274-9.0753 4.6695-15.885 13.862-17.044 24.077-.45908 6.4916-.27518 13.005-.33038 19.507-.0025 10.435.025857 20.871.23746 31.304.02269 1.1613.10288 2.574.2705 3.8221.85858 7.2523 5.1464 14.208 11.716 17.593 5.5324 2.9474 11.927 3.6174 18.103 3.5558.85459-.23703.91718.29508.79912 1.0056-.09874 11.834-1.017 23.717.32419 35.514.52523 3.9867 2.0768 7.8845 4.6254 10.989 3.9775 5.3067 9.5785 9.7411 16.191 11.078 4.426.80484 8.9432.32813 13.412.43776 54.278.0296 108.55.01014 162.83-.00826 6.8083-.25468 13.101-3.9698 17.541-8.9885 3.0753-3.3727 5.6412-7.406 6.426-11.968.31846-1.5784.50971-3.2399.63186-4.7431.11395-1.514.18154-2.9452.23333-4.4024.37499-9.5001-.19558-19.003-.24572-28.504-.13928-.75965 1.0129-.26556 1.495-.42124 2.1022-.0158 4.2048-.08801 6.2959-.31386.36577-.0523 1.1923-.13756 1.7304-.23127 5.3506-.75129 10.62-2.9124 14.473-6.7832 3.8239-3.7006 6.0311-8.8328 6.6387-14.076.52348-4.2311.24556-8.5024.36962-12.753.119-13.324.22278-26.652-.05988-39.975-.72578-13.108-10.832-24.886-23.472-28.118-4.5649-1.1701-9.31-1.1212-13.988-1.1398-.0925-8.945-.11339-17.986-.41918-26.869-.0736-2.7163-.1777-5.4554-.91888-8.0882-2.5974-9.8534-10.398-18.195-20.131-21.285-3.6401-1.2446-7.5131-1.4462-11.328-1.4454-13.172-.08656-26.345-.15837-39.518-.13215zm-32.161 10.007c46.288-.064152 74.936.012371 76.385.25192 6.2323 1.0306 10.96 4.0384 14.376 9.1455 1.6392 2.4508 2.6638 5.1077 3.1944 8.2927.17595 1.056.54999 23.259.51829 31.091-.03471 8.5732.04834 9.0974 13.05 9.0567 7.0462-.02207 10.984 1.0017 14.966 3.8056 5.2177 3.6731 8.2977 8.4565 9.3809 14.572.46542 2.6276.18319 48.242.0 50.904-1.3426 19.512-24.47 12.181-27.781 14.638-3.3116 2.4573-3.1836 5.5498-3.1056 10.161-.01484 10.285 1.5265 33.438-1.3566 38.409-2.3744 4.0945-7.5014 9.932-14.043 9.924-.93041-.001-17.098-.0243-85.584.0-68.486-.0243-84.652-.001-85.582.0-6.542.008-11.669-5.8295-14.043-9.924-2.8831-4.9717-1.3418-28.124-1.3566-38.409.07796-4.6116.20394-7.7041-3.1077-10.161-3.3116-2.4573-26.439 4.8737-27.781-14.638-.18319-2.6622-.46541-48.276.0-50.904 1.0832-6.1156 4.1632-10.899 9.3809-14.572 3.9829-2.8039 7.9223-3.8277 14.969-3.8056 13.002.0407 13.085-.4835 13.05-9.0567-.03171-7.8327.34235-30.035.51829-31.091.53066-3.1849 1.5531-5.8418 3.1923-8.2927 3.4158-5.107 8.1456-8.1148 14.378-9.1455 1.4486-.23955 30.095-.31607 76.383-.25192z" fill="#fff"/></g><path transform="matrix(1.9393 0 0 2.1562 -166.47 -95.65)" d="m129.65 96.994q-1.6533.0-2.6667-.90667-.96-.96-.96-2.5067v-14.88q0-1.5467.90667-2.4.90666-.90667 2.4-.90667h4.8533q3.52.0 5.9733 1.44 2.4533 1.3867 3.7333 3.84 1.3333 2.4 1.3333 5.4933.0 3.2-1.3333 5.6533t-3.6267 3.84q-2.2933 1.3333-5.12 1.3333zm2.5067-4.2667h2.08q3.04.0 4.64-1.7067 1.6-1.76 1.5467-4.8533-.0533-3.2-1.6533-4.8533t-4.5867-1.6533h-2.0267q-1.3333.0-1.3333 1.3333v10.4q0 1.3333 1.3333 1.3333zm24 4.8q-1.0133.0-1.7067-.58667-.69333-.64-.69333-1.6533v-5.6q0-.58667-.10667-1.12-.0533-.58667-.42667-1.12l-5.9733-8.5867q-.42667-.69333-.42667-1.28.0-1.0133.74666-1.7067.74667-.74667 1.76-.74667 1.28.0 1.92 1.0667l3.9467 6.24q.48.74667 1.0133.74667t1.0133-.74667l3.84-6.24q.64-1.0667 1.92-1.0667 1.0667.0 1.76.74667.74666.69333.74666 1.7067.0.58667-.42666 1.28l-5.9733 8.5867q-.37334.53333-.48 1.12-.0533.53333-.0533 1.12v5.6q0 1.0133-.69333 1.6533-.64.58667-1.7067.58667zm15.2.0q-1.0667.0-1.76-.58667-.64-.64-.64-1.6533v-17.333q0-1.3867.85333-2.08.85333-.74667 1.92-.74667.74667.0 1.44.37333.69333.32 1.1733 1.0667l7.68 11.573q.21333.37333.64.37333.53333.0.53333-.64l-.37333-10.507q-.0533-1.0667.64-1.6533.69333-.58667 1.76-.58667 1.0667.0 1.7067.58667.69333.58667.69333 1.6533v17.28q0 1.3333-.85333 2.08t-1.92.74667q-.69333.0-1.3867-.37333-.69334-.32-1.1733-1.0667l-7.6267-11.947q-.21333-.37333-.64-.37333-.58666.0-.58666.69333l.32 10.88q.0533 1.0133-.64 1.6533-.69334.58667-1.76.58667zm21.867.0q-.85333.0-1.6533-.64-.74667-.64-.74667-1.6533.0-.42667.16-.90667l6.72-17.547q.37333-.96 1.2267-1.44.85334-.48 1.76-.48.96.0 1.8133.48.90667.48 1.28 1.44l7.2 17.44q.10667.21333.10667.42667.0.21333.0.42667.0 1.12-.74667 1.76t-1.6533.64q-.64.0-1.28-.37333-.58667-.32-.85333-1.0667l-1.5467-4.16q-.0533-.32-.42667-.32h-7.2q-.37334.0-.48.32l-1.4933 4.2133q-.37334.69333-.96 1.0667-.58667.37333-1.2267.37333zm6.08-10.133h3.1467q.32.0.48-.21333.21333-.26667.10667-.64l-1.3867-3.7867q-.32-.85333-.8-.85333t-.8.90667l-1.3333 3.7867q-.10667.32.0533.58667.16.21333.53334.21333z" fill="#fff" style="inline-size:183.094;white-space:pre" aria-label="DYNA"/><path transform="matrix(2.3994 0 0 2.7339 -260.08 -81.285)" d="m127.57 97.527q-1.0667.0-1.8133-.8-.69334-.8-.53334-1.8667l2.24-17.12q.16-1.1733.96-1.8667.8-.74667 1.92-.74667 2.2933.0 2.9867 1.9733l3.6267 10.453q.26667.53333.53333.53333.37333.0.53333-.53333l3.6267-10.453q.69333-1.9733 2.9333-1.9733 1.2267.0 1.9733.74667.8.69333.96 1.8667l2.24 17.12q.16 1.0667-.58667 1.8667-.69333.8-1.76.8-.96.0-1.6533-.58667-.64-.64-.74666-1.6l-.8-11.147q-.0533-.64-.42667-.64-.37333.0-.53333.53333l-3.0933 8.6933q-.74667 1.9733-2.6667 1.9733-.74666.0-1.4933-.53333-.69333-.53333-1.12-1.3867l-3.0933-8.64q-.16-.48-.53333-.48-.32.0-.42667.64l-.85333 10.987q-.0533.96-.74667 1.6-.69333.58667-1.6533.58667zm36.267.0q-3.1467.0-5.7067-1.4933-2.5067-1.5467-4-4.16-1.44-2.6133-1.44-5.76.0-3.2533 1.44-5.76 1.4933-2.56 4-4 2.5067-1.4933 5.7067-1.4933 3.2.0 5.6533 1.4933 2.5067 1.44 3.8933 4 1.44 2.5067 1.44 5.76.0 3.2-1.44 5.8133-1.44 2.56-3.9467 4.1067-2.4533 1.4933-5.6 1.4933zm0-4.2667q2.72.0 4.4267-2.0267 1.76-2.0267 1.76-5.12t-1.76-5.0667q-1.7067-1.9733-4.4267-1.9733-2.7733.0-4.5867 1.9733-1.76 1.9733-1.76 5.0667.0 3.0933 1.76 5.12 1.8133 2.0267 4.5867 2.0267zm21.12 4.2667q-1.0133.0-1.7067-.58667-.69333-.64-.69333-1.6533v-13.92q0-1.6-1.6-1.6h-2.6133q-.96.0-1.6-.58667-.58667-.64-.58667-1.6t.58667-1.5467q.64-.64 1.6-.64h13.173q1.0133.0 1.6.64.64.58667.64 1.5467.0.96-.64 1.6-.58666.58667-1.6.58667h-2.56q-1.6.0-1.6 1.6v13.92q0 1.0133-.69333 1.6533-.64.58667-1.7067.58667zm14.4.0q-1.0133.0-1.7067-.64-.69334-.64-.69334-1.6V77.42q0-1.0133.69334-1.6533.69333-.64 1.7067-.64 1.0667.0 1.7067.64.69333.64.69333 1.6533v17.867q0 1.0133-.69333 1.6533-.64.58667-1.7067.58667zm15.733.0q-.90666.0-1.76-.48-.85333-.48-1.2267-1.44l-6.4533-17.28q-.16-.48-.16-.90667.0-1.0133.74666-1.6533.74667-.64 1.7067-.64.64.0 1.28.37333.69333.32.90666 1.0667l4.32 12.747q.32.90667.8.90667t.8-.85333l4.5867-12.747q.26666-.74667.85333-1.0667.64-.37333 1.28-.37333 1.1733.0 1.8133.8t.64 1.7067q0 .16.0.37333.0.16-.10667.37333l-6.9333 17.173q-.37333.96-1.28 1.44-.85333.48-1.8133.48z" fill="#fefefe" style="inline-size:183.094;white-space:pre" aria-label="MOTIV"/><path transform="matrix(1.8935 0 0 2.085 -164.34 39.638)" d="m126.83 97.527q-.85333.0-1.6533-.64-.74667-.64-.74667-1.6533.0-.42667.16-.90667l6.72-17.547q.37333-.96 1.2267-1.44.85334-.48 1.76-.48.96.0 1.8133.48.90666.48 1.28 1.44l7.2 17.44q.10667.21333.10667.42667.0.21333.0.42667.0 1.12-.74667 1.76t-1.6533.64q-.64.0-1.28-.37333-.58667-.32-.85333-1.0667l-1.5467-4.16q-.0533-.32-.42667-.32h-7.2q-.37333.0-.48.32l-1.4933 4.2133q-.37334.69333-.96 1.0667-.58667.37333-1.2267.37333zm6.08-10.133h3.1467q.32.0.48-.21333.21334-.26667.10667-.64l-1.3867-3.7867q-.32-.85333-.8-.85333t-.8.90667l-1.3333 3.7867q-.10667.32.0533.58667.16.21333.53334.21333zm20.587 10.133q-1.0133.0-1.7067-.58667-.69333-.64-.69333-1.6533v-13.92q0-1.6-1.6-1.6h-2.6133q-.96.0-1.6-.58667-.58667-.64-.58667-1.6t.58667-1.5467q.63999-.64 1.6-.64h13.173q1.0133.0 1.6.64.64.58667.64 1.5467.0.96-.64 1.6-.58667.58667-1.6.58667h-2.56q-1.6.0-1.6 1.6v13.92q0 1.0133-.69333 1.6533-.64.58667-1.7067.58667zm14.4.0q-1.0133.0-1.7067-.64t-.69333-1.6V77.42q0-1.0133.69333-1.6533t1.7067-.64q1.0667.0 1.7067.64.69333.64.69333 1.6533v17.867q0 1.0133-.69333 1.6533-.64.58667-1.7067.58667zm17.547.0q-3.1467.0-5.7067-1.4933-2.5067-1.5467-4-4.16-1.44-2.6133-1.44-5.76.0-3.2533 1.44-5.76 1.4933-2.56 4-4 2.5067-1.4933 5.7067-1.4933t5.6533 1.4933q2.5067 1.44 3.8933 4 1.44 2.5067 1.44 5.76.0 3.2-1.44 5.8133-1.44 2.56-3.9467 4.1067-2.4533 1.4933-5.6 1.4933zm0-4.2667q2.72.0 4.4267-2.0267 1.76-2.0267 1.76-5.12t-1.76-5.0667q-1.7067-1.9733-4.4267-1.9733-2.7733.0-4.5867 1.9733-1.76 1.9733-1.76 5.0667.0 3.0933 1.76 5.12 1.8133 2.0267 4.5867 2.0267zm17.12 4.2667q-1.0667.0-1.76-.58667-.64-.64-.64-1.6533v-17.333q0-1.3867.85334-2.08.85333-.74667 1.92-.74667.74666.0 1.44.37333.69334.32 1.1733 1.0667l7.68 11.573q.21334.37333.64.37333.53334.0.53334-.64l-.37334-10.507q-.0533-1.0667.64-1.6533.69333-.58667 1.76-.58667t1.7067.58667q.69333.58667.69333 1.6533v17.28q0 1.3333-.85333 2.08-.85334.74667-1.92.74667-.69334.0-1.3867-.37333-.69333-.32-1.1733-1.0667l-7.6267-11.947q-.21334-.37333-.64-.37333-.58667.0-.58667.69333l.32 10.88q.0533 1.0133-.64 1.6533-.69333.58667-1.76.58667z" fill="#fff" style="inline-size:183.094;white-space:pre" aria-label="ATION"/></g></g></svg>