<svg width="268.83" height="208.37" viewBox="0 0 268.84 208.37" xmlns="http://www.w3.org/2000/svg"><defs><linearGradient id="a" x1="215.23" x2="111" y1="45.76" y2="265.56" gradientUnits="userSpaceOnUse"><stop stop-color="#3dffe5" offset="0"/><stop stop-color="#38e89f" offset=".5"/><stop stop-color="#4aff80" offset="1"/></linearGradient></defs><g transform="translate(-26.044 -50.873)"><g transform="matrix(.94587 0 0 .94587 8.6865 8.3939)"><g transform="translate(.43162)"><path d="m116.66 44.926c-10.107.06241-20.216-.04768-30.32.18961-2.8043.04108-5.6233.26566-8.32 1.0853-9.0658 2.575-16.752 9.5756-20.085 18.401-1.5983 4.0709-2.173 8.4809-2.0329 12.835-.18669 8.426-.28523 16.854-.35897 25.281-1.9963.0285-4.2017.0384-6.0664.11914-1.0302.046-1.9434.10975-3.0234.21289-3.8867.3427-7.7062 1.4056-11.162 3.2274-9.0753 4.6695-15.884 13.86-17.043 24.076-.45908 6.4916-.27506 13.005-.33026 19.507-.0025 10.435.02472 20.871.23633 31.305.02269 1.1613.10294 2.5729.27056 3.821.85858 7.2523 5.1483 14.209 11.718 17.594 5.5324 2.9474 11.926 3.6162 18.102 3.5545.85459-.23703.91826.29645.8002 1.007-.09874 11.834-1.0181 23.717.32305 35.515.52523 3.9867 2.0776 7.883 4.6261 10.988 3.9775 5.3067 9.5788 9.7425 16.191 11.08 4.426.80484 8.9421.3271 13.411.43673 54.278.0296 108.56.0114 162.83-.007 6.8083-.25468 13.101-3.97 17.541-8.9887 3.0753-3.3727 5.6403-7.4075 6.4251-11.97.31846-1.5784.50872-3.2398.63087-4.743.11395-1.514.18236-2.9452.23415-4.4024.37499-9.5001-.19582-19.003-.24596-28.504-.13928-.75965 1.0123-.2645 1.4944-.42018 2.1022-.0158 4.2059-.0881 6.297-.31395.36577-.0523 1.1919-.13693 1.7299-.23064 5.3506-.75129 10.621-2.914 14.474-6.7848 3.824-3.7006 6.0306-8.8324 6.6382-14.076.52348-4.2311.24589-8.5027.36995-12.753.119-13.324.22286-26.652-.0598-39.974-.72578-13.108-10.832-24.886-23.471-28.118-4.5649-1.1701-9.3116-1.1207-13.989-1.1393-.0925-8.945-.11218-17.987-.41797-26.869-.0736-2.7163-.17744-5.4558-.91862-8.0887-2.5974-9.8534-10.4-18.194-20.132-21.284-3.6401-1.2446-7.5132-1.4467-11.328-1.4459-13.172-.08656-26.345-.15908-39.518-.13287-25.174.0084-50.348-.01973-75.523.0099z" fill="url(#a)"/></g></g></g></svg>