<svg width="268.83" height="208.37" viewBox="0 0 268.84 208.37" xmlns="http://www.w3.org/2000/svg"><g transform="translate(-26.044 -50.873)"><g transform="matrix(.94587 0 0 .94587 8.6865 8.3939)"><g transform="translate(.43162)"><path transform="translate(-1.9676)" d="m161.99 255.18c-68.486-.0243-84.653-.001-85.584.0-6.542.008-11.668-5.8296-14.043-9.9241-2.8831-4.9717-1.3427-28.125-1.3575-38.41.07796-4.6116.20545-7.7046-3.1062-10.162-3.3116-2.4573-26.438 4.8738-27.781-14.638-.18319-2.6622-.46541-48.275.0-50.902 1.0832-6.1156 4.1633-10.901 9.381-14.574 3.9829-2.8039 7.9205-3.827 14.967-3.8049 13.002.0407 13.086-.48423 13.051-9.0574-.03171-7.8327.34214-30.034.51808-31.09.53066-3.1849 1.554-5.8428 3.1932-8.2936 3.4158-5.107 8.1442-8.115 14.377-9.1456 1.4486-.23955 30.097-.316 76.385-.25185m0 200.25c68.486-.0243 84.653-.001 85.584.0 6.542.008 11.668-5.8296 14.043-9.9241 2.8831-4.9717 1.3427-28.125 1.3575-38.41-.078-4.6116-.20545-7.7046 3.1062-10.162 3.3116-2.4573 26.438 4.8738 27.781-14.638.18319-2.6622.46542-48.275.0-50.902-1.0832-6.1156-4.1633-10.901-9.381-14.574-3.9829-2.8039-7.9205-3.827-14.967-3.8049-13.002.0407-13.086-.48423-13.051-9.0574.0317-7.8327-.34214-30.034-.51809-31.09-.53066-3.1849-1.554-5.8428-3.1932-8.2936-3.4158-5.107-8.1442-8.115-14.377-9.1456-1.4486-.23955-30.097-.316-76.385-.25185" fill="#893750"/></g><path transform="matrix(1.9393 0 0 2.1562 -166.47 -95.65)" d="m129.65 96.994q-1.6533.0-2.6667-.90667-.96-.96-.96-2.5067v-14.88q0-1.5467.90667-2.4.90666-.90667 2.4-.90667h4.8533q3.52.0 5.9733 1.44 2.4533 1.3867 3.7333 3.84 1.3333 2.4 1.3333 5.4933.0 3.2-1.3333 5.6533t-3.6267 3.84q-2.2933 1.3333-5.12 1.3333zm2.5067-4.2667h2.08q3.04.0 4.64-1.7067 1.6-1.76 1.5467-4.8533-.0533-3.2-1.6533-4.8533t-4.5867-1.6533h-2.0267q-1.3333.0-1.3333 1.3333v10.4q0 1.3333 1.3333 1.3333zm24 4.8q-1.0133.0-1.7067-.58667-.69333-.64-.69333-1.6533v-5.6q0-.58667-.10667-1.12-.0533-.58667-.42667-1.12l-5.9733-8.5867q-.42667-.69333-.42667-1.28.0-1.0133.74666-1.7067.74667-.74667 1.76-.74667 1.28.0 1.92 1.0667l3.9467 6.24q.48.74667 1.0133.74667t1.0133-.74667l3.84-6.24q.64-1.0667 1.92-1.0667 1.0667.0 1.76.74667.74666.69333.74666 1.7067.0.58667-.42666 1.28l-5.9733 8.5867q-.37334.53333-.48 1.12-.0533.53333-.0533 1.12v5.6q0 1.0133-.69333 1.6533-.64.58667-1.7067.58667zm15.2.0q-1.0667.0-1.76-.58667-.64-.64-.64-1.6533v-17.333q0-1.3867.85333-2.08.85333-.74667 1.92-.74667.74667.0 1.44.37333.69333.32 1.1733 1.0667l7.68 11.573q.21333.37333.64.37333.53333.0.53333-.64l-.37333-10.507q-.0533-1.0667.64-1.6533.69333-.58667 1.76-.58667 1.0667.0 1.7067.58667.69333.58667.69333 1.6533v17.28q0 1.3333-.85333 2.08t-1.92.74667q-.69333.0-1.3867-.37333-.69334-.32-1.1733-1.0667l-7.6267-11.947q-.21333-.37333-.64-.37333-.58666.0-.58666.69333l.32 10.88q.0533 1.0133-.64 1.6533-.69334.58667-1.76.58667zm21.867.0q-.85333.0-1.6533-.64-.74667-.64-.74667-1.6533.0-.42667.16-.90667l6.72-17.547q.37333-.96 1.2267-1.44.85334-.48 1.76-.48.96.0 1.8133.48.90667.48 1.28 1.44l7.2 17.44q.10667.21333.10667.42667.0.21333.0.42667.0 1.12-.74667 1.76t-1.6533.64q-.64.0-1.28-.37333-.58667-.32-.85333-1.0667l-1.5467-4.16q-.0533-.32-.42667-.32h-7.2q-.37334.0-.48.32l-1.4933 4.2133q-.37334.69333-.96 1.0667-.58667.37333-1.2267.37333zm6.08-10.133h3.1467q.32.0.48-.21333.21333-.26667.10667-.64l-1.3867-3.7867q-.32-.85333-.8-.85333t-.8.90667l-1.3333 3.7867q-.10667.32.0533.58667.16.21333.53334.21333z" fill="#fff" style="inline-size:183.094;white-space:pre" aria-label="DYNA"/><path transform="matrix(2.3994 0 0 2.7339 -260.08 -81.285)" d="m127.57 97.527q-1.0667.0-1.8133-.8-.69334-.8-.53334-1.8667l2.24-17.12q.16-1.1733.96-1.8667.8-.74667 1.92-.74667 2.2933.0 2.9867 1.9733l3.6267 10.453q.26667.53333.53333.53333.37333.0.53333-.53333l3.6267-10.453q.69333-1.9733 2.9333-1.9733 1.2267.0 1.9733.74667.8.69333.96 1.8667l2.24 17.12q.16 1.0667-.58667 1.8667-.69333.8-1.76.8-.96.0-1.6533-.58667-.64-.64-.74666-1.6l-.8-11.147q-.0533-.64-.42667-.64-.37333.0-.53333.53333l-3.0933 8.6933q-.74667 1.9733-2.6667 1.9733-.74666.0-1.4933-.53333-.69333-.53333-1.12-1.3867l-3.0933-8.64q-.16-.48-.53333-.48-.32.0-.42667.64l-.85333 10.987q-.0533.96-.74667 1.6-.69333.58667-1.6533.58667zm36.267.0q-3.1467.0-5.7067-1.4933-2.5067-1.5467-4-4.16-1.44-2.6133-1.44-5.76.0-3.2533 1.44-5.76 1.4933-2.56 4-4 2.5067-1.4933 5.7067-1.4933t5.6533 1.4933q2.5067 1.44 3.8933 4 1.44 2.5067 1.44 5.76.0 3.2-1.44 5.8133-1.44 2.56-3.9467 4.1067-2.4533 1.4933-5.6 1.4933zm0-4.2667q2.72.0 4.4267-2.0267 1.76-2.0267 1.76-5.12t-1.76-5.0667q-1.7067-1.9733-4.4267-1.9733-2.7733.0-4.5867 1.9733-1.76 1.9733-1.76 5.0667.0 3.0933 1.76 5.12 1.8133 2.0267 4.5867 2.0267zm21.12 4.2667q-1.0133.0-1.7067-.58667-.69333-.64-.69333-1.6533v-13.92q0-1.6-1.6-1.6h-2.6133q-.96.0-1.6-.58667-.58667-.64-.58667-1.6t.58667-1.5467q.64-.64 1.6-.64h13.173q1.0133.0 1.6.64.64.58667.64 1.5467.0.96-.64 1.6-.58666.58667-1.6.58667h-2.56q-1.6.0-1.6 1.6v13.92q0 1.0133-.69333 1.6533-.64.58667-1.7067.58667zm14.4.0q-1.0133.0-1.7067-.64-.69334-.64-.69334-1.6V77.42q0-1.0133.69334-1.6533.69333-.64 1.7067-.64 1.0667.0 1.7067.64.69333.64.69333 1.6533v17.867q0 1.0133-.69333 1.6533-.64.58667-1.7067.58667zm15.733.0q-.90666.0-1.76-.48-.85333-.48-1.2267-1.44l-6.4533-17.28q-.16-.48-.16-.90667.0-1.0133.74666-1.6533.74667-.64 1.7067-.64.64.0 1.28.37333.69333.32.90666 1.0667l4.32 12.747q.32.90667.8.90667t.8-.85333l4.5867-12.747q.26666-.74667.85333-1.0667.64-.37333 1.28-.37333 1.1733.0 1.8133.8t.64 1.7067q0 .16.0.37333.0.16-.10667.37333l-6.9333 17.173q-.37333.96-1.28 1.44-.85333.48-1.8133.48z" fill="#fefefe" style="inline-size:183.094;white-space:pre" aria-label="MOTIV"/><path transform="matrix(1.8935 0 0 2.085 -164.34 39.638)" d="m126.83 97.527q-.85333.0-1.6533-.64-.74667-.64-.74667-1.6533.0-.42667.16-.90667l6.72-17.547q.37333-.96 1.2267-1.44.85334-.48 1.76-.48.96.0 1.8133.48.90666.48 1.28 1.44l7.2 17.44q.10667.21333.10667.42667.0.21333.0.42667.0 1.12-.74667 1.76t-1.6533.64q-.64.0-1.28-.37333-.58667-.32-.85333-1.0667l-1.5467-4.16q-.0533-.32-.42667-.32h-7.2q-.37333.0-.48.32l-1.4933 4.2133q-.37334.69333-.96 1.0667-.58667.37333-1.2267.37333zm6.08-10.133h3.1467q.32.0.48-.21333.21334-.26667.10667-.64l-1.3867-3.7867q-.32-.85333-.8-.85333t-.8.90667l-1.3333 3.7867q-.10667.32.0533.58667.16.21333.53334.21333zm20.587 10.133q-1.0133.0-1.7067-.58667-.69333-.64-.69333-1.6533v-13.92q0-1.6-1.6-1.6h-2.6133q-.96.0-1.6-.58667-.58667-.64-.58667-1.6t.58667-1.5467q.63999-.64 1.6-.64h13.173q1.0133.0 1.6.64.64.58667.64 1.5467.0.96-.64 1.6-.58667.58667-1.6.58667h-2.56q-1.6.0-1.6 1.6v13.92q0 1.0133-.69333 1.6533-.64.58667-1.7067.58667zm14.4.0q-1.0133.0-1.7067-.64t-.69333-1.6V77.42q0-1.0133.69333-1.6533t1.7067-.64q1.0667.0 1.7067.64.69333.64.69333 1.6533v17.867q0 1.0133-.69333 1.6533-.64.58667-1.7067.58667zm17.547.0q-3.1467.0-5.7067-1.4933-2.5067-1.5467-4-4.16-1.44-2.6133-1.44-5.76.0-3.2533 1.44-5.76 1.4933-2.56 4-4 2.5067-1.4933 5.7067-1.4933t5.6533 1.4933q2.5067 1.44 3.8933 4 1.44 2.5067 1.44 5.76.0 3.2-1.44 5.8133-1.44 2.56-3.9467 4.1067-2.4533 1.4933-5.6 1.4933zm0-4.2667q2.72.0 4.4267-2.0267 1.76-2.0267 1.76-5.12t-1.76-5.0667q-1.7067-1.9733-4.4267-1.9733-2.7733.0-4.5867 1.9733-1.76 1.9733-1.76 5.0667.0 3.0933 1.76 5.12 1.8133 2.0267 4.5867 2.0267zm17.12 4.2667q-1.0667.0-1.76-.58667-.64-.64-.64-1.6533v-17.333q0-1.3867.85334-2.08.85333-.74667 1.92-.74667.74666.0 1.44.37333.69334.32 1.1733 1.0667l7.68 11.573q.21334.37333.64.37333.53334.0.53334-.64l-.37334-10.507q-.0533-1.0667.64-1.6533.69333-.58667 1.76-.58667t1.7067.58667q.69333.58667.69333 1.6533v17.28q0 1.3333-.85333 2.08-.85334.74667-1.92.74667-.69334.0-1.3867-.37333-.69333-.32-1.1733-1.0667l-7.6267-11.947q-.21334-.37333-.64-.37333-.58667.0-.58667.69333l.32 10.88q.0533 1.0133-.64 1.6533-.69333.58667-1.76.58667z" fill="#fff" style="inline-size:183.094;white-space:pre" aria-label="ATION"/></g></g></svg>