<svg viewBox="-147 -70 294 345" xmlns="http://www.w3.org/2000/svg"><g fill="#a4c639"><path d="m119 41c-13.296.0-24 10.704-24 24v85c0 13.296 10.704 24 24 24s24-10.704 24-24V65c0-13.296-10.704-24-24-24z"/><path d="m-119 41c-13.296.0-24 10.704-24 24v85c0 13.296 10.704 24 24 24s24-10.704 24-24V65c0-13.296-10.704-24-24-24z"/><path d="m91 48.047H-91v131.95c0 12.188 9.812 22 22 22h11v45c0 13.296 10.704 24 24 24s24-10.704 24-24v-45h20v45c0 13.296 10.704 24 24 24s24-10.704 24-24v-45h11c12.188.0 22-9.812 22-22z"/><path d="m56.529-66.1c-2.3047-.0216-4.542 1.1902-5.7422 3.3555l-14.766 26.639c-11.373-4.5379-23.631-6.884-36.021-6.8945-12.383.03763-24.627 2.4076-35.982 6.9648l-14.805-26.709c-1.0911-1.9684-3.0402-3.1484-5.1172-3.3301-.15577-.01363-.31187-.0211-.46875-.02344-1.0982-.01636-2.2166.24552-3.25.81836-3.1495 1.7458-4.279 5.6864-2.5332 8.8359l14.504 26.166c-26.22 14.946-42.464 41.124-43.164 69.562-.03077.27526-.06007.55065-.08789.82617-.01896.22447-.02478.45271-.03516.67969h181.93c-.097741-29.049-16.443-55.998-43.242-71.246l14.406-25.988c1.7458-3.1495.6163-7.0901-2.5332-8.8359-.98422-.54556-2.0461-.81049-3.0938-.82031zM42.095-7.791a7.6952 7.6952.0 017.6953 7.6953A7.6952 7.6952.0 0142.095 7.5996a7.6952 7.6952.0 01-7.6953-7.6953A7.6952 7.6952.0 0142.095-7.791zm-83.928.42188a7.6952 7.6952.0 017.6953 7.6953 7.6952 7.6952.0 01-7.6953 7.6934 7.6952 7.6952.0 01-7.6953-7.6934 7.6952 7.6952.0 017.6953-7.6953z"/></g></svg>