<svg width="24" height="24" viewBox="0 -960 960 960" xmlns="http://www.w3.org/2000/svg"><path d="m285-797.5c-36 0-68.016 11.115-96.016 33.281s-46.818 50.703-56.484 85.703l-83.984 336.02c-1.3333 6-2.3802 11.901-3.0469 17.734-.66667 5.8333-.9375 11.734-.9375 17.734 1.3333 40 15.917 74.095 43.75 102.27 27.833 28.167 61.373 42.266 100.7 42.266 27.667.0 53.297-7.1514 76.797-21.484 23.5-14.333 41.203-33.984 53.203-58.984l27.5-58.047c3.6667-7 9.0152-12.349 16.016-16.016s14.5-5.4688 22.5-5.4688h190c8 0 15.5 1.802 22.5 5.4688s12.349 9.0152 16.016 16.016l27.969 58.047c11.667 25 29.234 44.651 52.734 58.984s49.13 21.484 76.797 21.484c40.333.0 74.634-13.885 102.97-41.719 28.333-27.833 42.5-61.794 42.5-101.8.0-6-.48434-12.036-1.4844-18.203s-2.1823-12.281-3.5156-18.281l-83.984-336.02c-9.6667-35-28.484-63.536-56.484-85.703s-60.016-33.281-96.016-33.281z" fill="#999" stroke-width="39.278" style="font-variation-settings:'wght' 700"/><path d="m296.68-701.84c-11.518.0-21.213 4.0042-29.132 11.923s-11.923 17.614-11.923 29.132v59.726h-59.726c-11.518.0-21.213 4.0042-29.132 11.923s-11.923 17.614-11.923 29.132c2e-5 11.518 4.0043 21.213 11.923 29.132 7.9185 7.9185 17.614 11.923 29.132 11.923h59.726v59.726c2e-5 11.518 4.0042 21.213 11.923 29.132s17.614 11.923 29.132 11.923 21.213-4.0043 29.132-11.923c7.9185-7.9185 11.923-17.614 11.923-29.132v-59.726h59.726c11.518.0 21.213-4.0042 29.132-11.923s11.923-17.614 11.923-29.132-4.0042-21.213-11.923-29.132-17.614-11.923-29.132-11.923h-59.726v-59.726c0-11.518-4.0042-21.213-11.923-29.132s-17.614-11.923-29.132-11.923z" fill="#4f4f4f" stroke-width="57.589" style="font-variation-settings:'wght' 700"/><g stroke-width="1.3756"><circle cx="571.2" cy="-561.2" r="49.521" fill="#107c10"/><circle cx="660.62" cy="-471.79" r="49.521" fill="#e81123"/><circle cx="660.62" cy="-650.62" r="49.521" fill="#0078d7"/><circle cx="750.03" cy="-561.2" r="49.521" fill="#ffb900"/></g></svg>