<svg width="24" height="24" fill="#1f1f1f" viewBox="0 -960 960 960" xmlns="http://www.w3.org/2000/svg"><g transform="translate(0 -14.275)" fill="#666" stroke-width="40"><rect x="601.19" y="-473.61" width="235.54" height="54.721" style="font-variation-settings:'wght' 700"/><rect x="601.19" y="-153.61" width="235.54" height="54.721" style="font-variation-settings:'wght' 700"/><rect x="676.13" y="-448.62" width="93.829" height="335.02" stroke-width="38.587" style="font-variation-settings:'wght' 700"/><path transform="translate(0 14.275)" d="m281.17-723.12v80h320v-80z"/><path transform="translate(0 14.275)" d="m521.17-542.89v-20.234h-240v80h240z"/><path transform="translate(0 14.275)" d="m281.17-403.12v80h2e2v-80z"/><path transform="translate(0 14.275)" d="m201.17-883.12c-22 0-40.818 7.8486-56.484 23.516-15.667 15.667-23.516 34.484-23.516 56.484v560c0 22 7.8486 40.818 23.516 56.484 15.667 15.667 34.484 23.516 56.484 23.516h320v-80h-320v-560h480v240h80v-240c1e-5-22-7.8486-40.818-23.516-56.484-15.667-15.667-34.484-23.516-56.484-23.516z"/></g></svg>