<svg width="24" height="24" fill="#1f1f1f" viewBox="0 -960 960 960" xmlns="http://www.w3.org/2000/svg"><g fill="#666"><path d="m400.31-403.12H281.17v80h119.14z"/><path d="m400.31-483.12v-80H281.17v80z"/><path d="m281.17-723.12v80h320v-80z"/><path d="m201.17-883.12c-22 0-40.818 7.8486-56.484 23.516-15.667 15.667-23.516 34.484-23.516 56.484v560c0 22 7.8486 40.818 23.516 56.484 15.667 15.667 34.484 23.516 56.484 23.516h199.14v-80H201.17v-560h480v240h80v-240c1e-5-22-7.8486-40.818-23.516-56.484-15.667-15.667-34.484-23.516-56.484-23.516z"/><g transform="translate(61.492 -17.1)"><rect x="418.51" y="-462.9" width="477.26" height="54.721" stroke-width="56.938" style="font-variation-settings:'wght' 700"/><rect x="418.51" y="-142.9" width="477.26" height="54.721" stroke-width="56.938" style="font-variation-settings:'wght' 700"/><rect x="742.9" y="-436.73" width="93.829" height="333.83" stroke-width="38.519" style="font-variation-settings:'wght' 700"/><rect x="601.19" y="-435.54" width="93.829" height="332.64" stroke-width="38.45" style="font-variation-settings:'wght' 700"/><rect x="457.17" y="-440.59" width="93.829" height="332.64" stroke-width="38.45" style="font-variation-settings:'wght' 700"/></g></g></svg>