<svg width="24" height="24" fill="#1f1f1f" viewBox="0 -960 960 960" xmlns="http://www.w3.org/2000/svg"><g fill="#666"><path d="m370.16-403.12h-88.984v80h133.75c-31.77-17.472-63.543-34.949-95.312-52.422 16.849-9.1905 33.698-18.388 50.547-27.578z"/><path d="m281.17-723.12v80h320v-80z"/><path d="m601.17-529.14v-33.984h-320v80h235.7c28.102-15.328 56.195-30.687 84.297-46.016z"/><path d="m201.17-883.12c-22 0-40.818 7.849-56.484 23.516-15.667 15.667-23.516 34.484-23.516 56.484v560c0 22 7.849 40.818 23.516 56.484 15.667 15.667 34.484 23.516 56.484 23.516h276.17v-80H201.17v-560h480v230.31l.70313-.39062c26.436 14.419 52.861 28.862 79.297 43.281v-273.2c0-22-7.849-40.818-23.516-56.484-15.667-15.667-34.484-23.516-56.484-23.516z"/><path d="m681.87-161.74-124.56-67.618v-106.77l-71.177-39.147 195.74-106.77 195.74 106.77v142.35h-35.589v-122.78l-35.589 19.574v106.77zm0-147.69 121.89-65.839-121.89-65.839-121.89 65.839zm0 107.21 88.972-48.045v-67.173l-88.972 48.934-88.972-48.934v67.173z" stroke-width=".44486"/></g></svg>