<svg class="icon" width="800" height="800" viewBox="0 0 1024 1024" xmlns="http://www.w3.org/2000/svg"><path d="m258.65.0c-60.068.0-114.7 53.474-114.7 113.54v71.48h-26.922c-36.046.0-65.368 29.349-65.368 65.395s29.322 65.395 65.368 65.395h26.922v44.662h-26.922c-36.046.0-65.368 29.349-65.368 65.395s29.322 65.395 65.368 65.395h26.922v41.47h-26.922c-36.046.0-65.368 30.149-65.368 66.195.0 36.046 29.322 66.19 65.368 66.19h26.922v44.66h-26.922c-36.046.0-65.368 28.554-65.368 64.6s29.322 64.6 65.368 64.6h26.922v80.748c0 60.068 54.637 104.27 114.7 104.27h620.98c60.068.0 103.3-44.204 103.3-104.27v-719.03c0-57.11-41.381-106.31-97.355-110.8-9.9545-49.881-51.226-89.898-103.99-89.898zm14.198 58.442h504.72c34.79.0 58.858 33.234 58.858 68.022v778.1c0 34.79-24.068 59.075-58.858 59.075h-504.72c-34.79.0-69.142-20.418-69.142-59.075v-151.08h33.495v-44.66h-33.495v-132.38h33.495v-44.66h-33.495v-129.2h33.495v-43.065h-33.495v-129.2h33.495v-46.255h-33.495v-57.598c0-42.056 34.353-68.023 69.142-68.022zm-151.93 171.88h26.922v41.47h-26.922c-12.012.0-21.79-8.723-21.79-20.735s9.7779-20.735 21.79-20.735zm0 172.26h26.922v44.662h-26.922c-12.012.0-21.79-10.318-21.79-22.33s9.7779-22.332 21.79-22.332zm0 173.86h26.922v43.065h-26.922c-12.012.0-21.79-9.5229-21.79-21.535s9.7779-21.53 21.79-21.53zm0 177.04h26.922v39.878h-26.922c-12.012.0-21.79-7.9279-21.79-19.94.0-12.012 9.7779-19.938 21.79-19.938z" fill="#505050" stroke-width="1.5578"/><g fill="#ff7415"><path d="m310.72 403.71v43.066h428.59V403.71z" stroke-width="2.0781"/><path d="m310.72 293.66v43.066H744.2V293.66z" stroke-width="1.7893"/><path d="m310.72 185.2v43.066h443V185.2z" stroke-width="1.6132"/></g></svg>