<svg class="external-icon" display="block" pointer-events="none" style="height:100%;width:100%" focusable="false" version="1.1" viewBox="0 0 28.57 20" xmlns="http://www.w3.org/2000/svg"><path d="m14.285 0s-8.9349 2.9047e-4 -11.162 0.59766c-1.23 0.32926-2.1961 1.2954-2.5254 2.5254-0.59737 2.2272-0.59766 6.877-0.59766 6.877s2.9047e-4 4.6498 0.59766 6.877c0.32926 1.23 1.2954 2.1962 2.5254 2.5254 2.2272 0.5974 11.162 0.59766 11.162 0.59766s8.935-2.56e-4 11.162-0.59766c1.23-0.3292 2.1962-1.2954 2.5254-2.5254 0.5974-2.2272 0.59766-6.877 0.59766-6.877s-0.0027-4.6498-0.59766-6.877c-0.3292-1.23-1.2954-2.1961-2.5254-2.5254-2.2271-0.59737-11.162-0.59766-11.162-0.59766zm-2.8594 5.7148 7.4219 4.2852-7.4219 4.2852z" fill="#fff"/></svg>
